<svg version="1.1" id="Layer_1" xmlns="http://www.w3.org/2000/svg" xmlns:xlink="http://www.w3.org/1999/xlink" x="0px" y="0px"
	 width="100%" viewBox="0 0 440 440" enable-background="new 0 0 440 440" xml:space="preserve">
<path fill="#FFFFFF" opacity="1.000000" stroke="none" 
	d="
M281.000000,441.000000 
	C187.359787,441.000000 94.219566,441.000000 1.039675,441.000000 
	C1.039675,294.401428 1.039675,147.802841 1.039675,1.102132 
	C147.556870,1.102132 294.113831,1.102132 440.835388,1.102132 
	C440.835388,147.666519 440.835388,294.333252 440.835388,441.000000 
	C387.802826,441.000000 334.651398,441.000000 281.000000,441.000000 
M151.122864,142.110886 
	C151.122864,142.110886 151.084915,142.165909 150.389984,142.045441 
	C149.344513,141.956268 148.299042,141.867096 147.253571,141.777924 
	C147.073257,142.089157 146.892944,142.400406 146.712631,142.711639 
	C148.121735,143.823975 149.530838,144.936325 150.924942,146.775497 
	C150.579666,148.454391 150.234406,150.133286 150.070984,150.927933 
	C151.677612,152.177536 152.723068,152.990662 153.116959,153.871460 
	C151.689331,155.086487 148.491348,155.285721 150.079559,158.904419 
	C149.948776,159.054916 149.818008,159.205429 149.038025,159.304733 
	C148.817474,160.340179 148.073975,161.719299 148.482681,162.341202 
	C149.399353,163.736069 150.888672,164.754593 152.064499,166.642654 
	C152.092239,167.121384 152.119980,167.600113 151.998291,168.810959 
	C152.959167,170.381882 153.920029,171.952789 155.127899,173.927536 
	C152.839600,173.431702 151.215408,173.079758 149.591202,172.727814 
	C149.413696,173.072174 149.236191,173.416534 149.058685,173.760895 
	C151.664337,175.618637 154.270004,177.476379 157.778885,179.978088 
	C154.839691,179.978088 153.179779,179.978088 151.519882,179.978088 
	C151.409439,180.282867 151.298981,180.587646 151.188538,180.892441 
	C153.647980,182.394791 156.107422,183.897141 158.030273,185.993423 
	C157.869370,186.206238 157.708450,186.419067 156.936356,186.735886 
	C156.160065,186.735886 155.383789,186.735886 154.607498,186.735886 
	C154.408539,187.192184 154.209579,187.648483 154.010635,188.104782 
	C156.637924,189.469940 159.265213,190.835098 162.180069,192.752686 
	C162.366882,193.155518 162.553711,193.558334 162.740524,193.961166 
	C161.363129,194.037201 159.985733,194.113235 157.077423,194.273804 
	C160.491638,196.585007 162.781418,198.135025 165.061371,199.678406 
	C162.916031,202.401535 164.236679,204.270935 169.135986,205.727737 
	C172.548172,208.486069 175.670715,211.799789 179.484222,213.788574 
	C181.673370,214.930237 185.106750,214.363724 187.718781,213.632736 
	C188.580765,213.391525 188.855576,210.243805 188.985886,208.395935 
	C189.158554,205.947861 188.925888,203.471207 189.392578,200.654007 
	C189.148788,199.383072 188.904999,198.112122 188.748322,196.057816 
	C188.082565,192.380966 187.416794,188.704102 186.727020,184.228424 
	C185.485565,179.818222 184.244125,175.408035 183.165787,170.485855 
	C183.142944,170.308197 183.120087,170.130554 183.156754,169.146500 
	C181.883606,165.642853 180.610458,162.139206 179.277954,158.387741 
	C179.277954,158.387741 179.230087,158.137451 179.289612,157.315414 
	C178.160812,153.879379 177.031998,150.443329 175.731033,146.367310 
	C175.287155,145.051895 174.843262,143.736496 174.026138,141.315018 
	C175.971649,142.776184 176.951202,143.511887 177.978638,144.782318 
	C178.250702,145.224228 178.522766,145.666138 179.023483,146.761139 
	C180.731827,149.501266 182.440186,152.241409 184.338028,155.457825 
	C184.626236,155.633316 184.914429,155.808807 185.232315,156.677246 
	C187.130066,160.137589 189.027817,163.597916 191.004608,167.645020 
	C191.264481,168.153214 191.524353,168.661392 191.945358,169.881729 
	C193.429459,173.262161 194.913559,176.642578 196.415558,180.859543 
	C197.693741,184.561951 198.971924,188.264343 200.089310,192.791000 
	C201.415985,199.401611 202.742645,206.012238 204.069305,212.622849 
	C204.566605,212.883484 205.063889,213.144104 205.561188,213.404724 
	C208.345093,210.185989 211.129013,206.967239 214.488541,203.487335 
	C216.379669,199.012955 218.270798,194.538574 220.745377,189.518372 
	C220.740051,187.180145 221.670273,183.528915 220.561707,182.739059 
	C216.526352,179.863754 218.637466,177.210693 219.751419,174.229263 
	C220.666458,171.780243 220.108353,170.018967 216.843536,169.246765 
	C217.255753,167.029633 217.667984,164.812500 218.080215,162.595383 
	C217.737686,162.481049 217.395142,162.366699 217.052612,162.252365 
	C215.676682,163.533112 214.300735,164.813858 212.897003,165.334198 
	C213.422180,163.037308 213.947357,160.740402 214.749252,157.233185 
	C212.220428,158.949326 211.055115,159.740128 209.678864,160.119888 
	C209.678864,160.119888 209.257462,159.930450 209.673187,159.267700 
	C210.647171,155.789139 211.621140,152.310593 212.618759,148.747604 
	C208.719696,148.840759 209.257401,155.050888 205.213837,151.456085 
	C205.911026,151.048035 206.608215,150.639969 207.690247,150.006683 
	C199.318649,147.991913 207.925446,140.896301 203.914337,137.672348 
	C202.441330,138.495026 201.235504,139.168472 200.027802,139.134903 
	C199.007950,138.090347 197.988083,137.045792 196.841675,135.153259 
	C196.337372,132.755981 198.853546,128.555984 193.013565,128.696426 
	C192.345718,127.445175 194.021347,122.059677 188.965546,125.287460 
	C190.329636,120.164551 184.261124,120.260628 182.672470,116.389091 
	C174.861740,110.468399 167.147141,104.414391 159.199356,98.683769 
	C155.279922,95.857735 153.984451,96.591957 153.147766,101.440079 
	C152.202805,106.915733 151.239120,112.396294 150.577728,117.910011 
	C150.100967,121.884476 150.105469,125.916664 149.237274,130.014511 
	C149.627380,133.711395 145.468811,138.143799 151.082520,141.551834 
	C151.117218,141.731522 151.151932,141.911209 151.122864,142.110886 
M177.165695,262.054199 
	C172.101547,262.754913 167.037415,263.455658 161.060959,264.053558 
	C157.393005,264.159912 153.725067,264.266235 149.206757,264.175964 
	C146.642899,264.446686 144.006561,264.433472 141.534683,265.064514 
	C138.829254,265.755188 137.705566,267.478485 140.244232,270.657196 
	C148.989975,273.230072 157.735718,275.802948 166.192566,278.290863 
	C165.091248,279.610901 163.509552,281.506683 161.343674,283.807434 
	C158.515503,287.028748 155.399902,290.048126 152.949860,293.535126 
	C150.981247,296.336945 152.593201,298.997589 155.720886,298.035095 
	C159.738556,296.798706 163.345612,294.228058 167.889954,292.300903 
	C172.652771,288.288513 177.415573,284.276154 182.783051,279.947723 
	C185.015991,277.654114 187.248932,275.360535 190.219894,273.142883 
	C194.485519,271.432800 198.751144,269.722717 203.735062,267.975433 
	C207.562195,265.319794 211.389328,262.664154 215.883011,259.938202 
	C222.784744,256.538300 222.963318,255.942001 218.896927,249.798843 
	C218.257111,248.832245 217.802307,247.460312 216.897995,247.015167 
	C215.383270,246.269516 213.315308,245.400055 211.954330,245.892670 
	C210.080566,246.570877 208.648071,248.468185 206.316620,250.009155 
	C203.877335,251.005493 201.438049,252.001846 199.000000,253.000000 
	C199.000000,253.000000 199.001389,253.001221 199.003799,252.215408 
	C199.969666,248.175461 200.935516,244.135513 202.258545,239.361603 
	C203.899887,230.996048 203.729385,232.776489 194.480743,227.315567 
	C190.084671,224.719879 189.105377,225.494995 188.998047,230.548508 
	C188.980576,231.371704 189.006516,232.195816 188.724228,233.721436 
	C187.441544,238.740067 186.158844,243.758698 184.432648,249.340210 
	C182.287445,253.556290 180.142242,257.772369 177.165695,262.054199 
M245.497482,207.574615 
	C248.956207,201.384399 252.414932,195.194183 256.314117,188.466522 
	C258.276947,184.365829 260.239746,180.265121 262.666595,175.766739 
	C263.143097,175.183868 263.619598,174.600983 264.210449,174.870102 
	C263.846710,177.914490 263.483002,180.958862 262.801117,184.688080 
	C261.270203,190.126297 259.739288,195.564499 257.858582,201.646835 
	C256.142334,206.062775 254.426071,210.478729 252.228485,215.352005 
	C248.780136,221.764359 245.331787,228.176712 241.883331,234.589264 
	C253.701691,240.540100 265.590820,234.985382 274.736664,225.759476 
	C275.396393,225.093994 275.247040,223.626465 275.537567,222.224426 
	C277.085449,221.106903 279.123596,219.635422 281.903534,217.628403 
	C279.561127,217.098862 278.604492,216.882599 277.524445,216.638443 
	C280.113281,215.046570 282.402283,213.639069 284.691315,212.231552 
	C284.474579,211.862976 284.257843,211.494385 284.041107,211.125793 
	C282.903259,210.987411 281.765442,210.849030 280.106110,210.647232 
	C282.974579,208.872864 285.246765,207.467346 287.879425,205.838867 
	C285.778198,204.976349 284.430878,204.423309 283.444244,203.292587 
	C285.648376,202.046829 287.852539,200.801086 290.056671,199.555328 
	C289.843292,199.186752 289.629913,198.818192 289.416534,198.449631 
	C288.128571,198.345200 286.840607,198.240768 285.158539,198.104401 
	C287.525909,196.373550 289.456604,194.961960 291.795349,193.252029 
	C289.579742,192.202408 288.354004,191.621735 287.830322,190.963364 
	C290.079895,189.644150 294.205902,188.859818 290.563873,186.084442 
	C291.138733,182.366623 291.681763,179.020508 292.077942,175.657104 
	C292.093018,175.528961 290.689117,175.233673 290.318787,174.436554 
	C290.999146,173.401947 292.296997,172.342819 292.257080,171.336792 
	C292.040314,165.873077 291.493347,160.422470 291.077484,154.126694 
	C290.690247,151.419785 290.303009,148.712875 289.945435,145.154007 
	C289.309235,141.423920 288.735443,137.681839 288.021271,133.966736 
	C287.105194,129.201721 286.137878,128.672867 282.042297,131.618958 
	C271.954742,138.875305 261.742035,146.024658 252.324280,154.086899 
	C250.511032,155.639160 244.759109,157.460266 246.958084,162.189606 
	C243.497116,161.142212 243.497116,161.142212 243.761749,167.126160 
	C242.799316,166.431366 241.913574,165.791916 240.534515,164.796341 
	C240.206741,167.017487 239.976303,168.579025 239.729935,170.248520 
	C232.527634,169.139343 238.738358,174.596634 236.446945,176.254730 
	C235.751923,175.958786 234.717148,175.518158 232.704651,174.661209 
	C233.319138,177.053192 233.703964,178.551208 234.064896,180.728287 
	C232.712952,185.583130 231.930115,178.116913 230.175552,181.811478 
	C230.322342,182.919357 230.622437,185.184372 230.946625,187.631226 
	C228.230469,186.818359 226.592911,187.070038 227.580399,190.264984 
	C227.918152,191.357712 228.215683,192.462875 228.106232,193.904190 
	C227.969620,194.024277 227.832993,194.144363 227.033371,194.023544 
	C226.764664,195.682922 226.495941,197.342316 226.224625,199.801102 
	C222.263901,203.874451 225.284851,208.583145 224.966003,213.785919 
	C226.640869,218.269867 228.315750,222.753815 229.990616,227.237762 
	C230.637314,227.207001 231.283997,227.176254 231.930695,227.145493 
	C236.275909,220.759918 240.621109,214.374359 245.497482,207.574615 
M261.986847,329.579712 
	C264.894806,324.995392 265.008118,320.610107 262.079285,317.750916 
	C259.098297,314.840820 255.488358,314.587524 251.930573,316.364075 
	C248.110046,318.271912 247.236786,321.814331 247.957397,325.727661 
	C249.027725,331.540192 255.017944,333.429749 261.986847,329.579712 
M173.829193,316.677765 
	C173.829193,321.628235 173.829193,326.578674 173.829193,330.958282 
	C176.206924,331.254639 178.013702,331.357697 179.765747,331.723267 
	C183.592194,332.521576 186.858261,331.201172 187.754715,327.645294 
	C188.490295,324.727600 188.585297,320.299805 186.886673,318.469879 
	C184.912354,316.342957 180.673096,316.318542 177.416870,315.381592 
	C175.359726,314.281342 179.100220,310.087585 173.829193,308.082336 
	C173.829193,311.195038 173.829193,313.471039 173.829193,316.677765 
M155.278305,324.848938 
	C153.854752,320.613129 152.529358,316.339783 150.935791,312.168945 
	C150.556946,311.177399 149.294006,309.918793 148.412888,309.899170 
	C147.579681,309.880615 146.324036,311.174011 145.931854,312.159973 
	C144.465851,315.845581 143.239670,319.629181 141.998596,323.400757 
	C141.125961,326.052643 140.374939,328.744568 139.569611,331.418610 
	C140.089706,331.639679 140.609802,331.860748 141.129898,332.081818 
	C141.839203,330.864655 142.845459,329.726501 143.194839,328.413574 
	C143.883453,325.825714 145.013596,324.548157 147.988449,324.762207 
	C150.637161,324.952759 152.821167,324.856537 153.409073,328.280487 
	C153.643707,329.646912 155.070724,330.808624 155.954941,332.063507 
	C156.406754,331.751892 156.858566,331.440308 157.310379,331.128693 
	C156.735596,329.269165 156.160812,327.409637 155.278305,324.848938 
M276.821716,312.150391 
	C278.684998,309.992218 278.758087,308.390045 275.398132,308.227722 
	C272.187897,308.072693 265.510712,315.649963 267.209930,317.950684 
	C270.270264,322.094391 268.298218,326.444885 269.194427,330.575134 
	C269.257416,330.865540 269.536804,331.108978 269.935852,331.701172 
	C271.135803,331.596283 272.512695,331.475952 273.547791,331.385498 
	C275.413696,326.852478 271.361603,321.349182 277.076263,318.354706 
	C276.613037,317.488190 276.367523,316.194733 275.649170,315.828430 
	C272.376648,314.159363 274.556274,313.291351 276.821716,312.150391 
M286.932861,320.100647 
	C291.154144,318.263519 291.065826,318.357880 287.701569,315.550964 
	C286.759338,314.764832 286.522217,313.133667 285.907196,311.769348 
	C281.725861,311.951324 279.972656,315.045197 279.782074,318.270874 
	C279.606262,321.246185 281.256470,324.286682 281.750977,327.355103 
	C282.373260,331.216400 284.804596,332.349304 288.130066,331.735504 
	C288.798645,331.612122 289.083984,329.412659 289.546051,328.170410 
	C285.015839,327.166412 287.150604,323.529877 286.932861,320.100647 
M233.124222,322.531647 
	C235.222504,324.088257 237.320786,325.644867 239.419067,327.201477 
	C239.285080,327.553528 239.151093,327.905548 239.017105,328.257599 
	C237.125076,328.135986 235.233047,328.014404 232.493378,327.838348 
	C232.990265,329.177094 233.516464,331.259583 233.788651,331.226898 
	C237.024124,330.838348 241.724503,331.238861 243.145432,329.305023 
	C247.286163,323.669739 239.935211,322.801239 236.961761,319.222473 
	C239.534607,319.222473 241.207657,319.222473 242.880707,319.222473 
	C243.113037,318.667725 243.345352,318.112946 243.577682,317.558197 
	C242.206512,316.804626 240.883865,315.528137 239.455093,315.395569 
	C235.169281,314.997894 233.095383,317.233124 233.124222,322.531647 
M205.788788,317.842377 
	C204.822083,317.222504 203.931641,316.315399 202.874863,316.034821 
	C199.215546,315.063232 195.838486,315.577759 193.766953,319.134491 
	C191.756729,322.585968 191.780579,326.227325 194.359558,329.353302 
	C196.725647,332.221252 199.929932,332.829132 203.345139,331.197174 
	C207.199249,329.355438 208.261932,326.007721 207.742508,322.081360 
	C207.576614,320.827240 206.758011,319.659424 205.788788,317.842377 
M215.853851,322.894012 
	C217.330536,320.819305 218.807236,318.744629 220.484589,316.388000 
	C218.214722,316.388000 215.711304,316.388000 213.213867,316.388000 
	C213.213867,321.317505 213.213867,326.478821 213.213867,331.640137 
	C213.847260,331.723175 214.480652,331.806183 215.114059,331.889221 
	C215.358292,329.186157 215.602539,326.483124 215.853851,322.894012 
M163.094986,315.919067 
	C162.592911,321.138519 162.090836,326.358002 161.588760,331.577454 
	C162.506073,331.671967 163.423386,331.766510 164.340683,331.861023 
	C164.556122,329.115234 164.264328,326.196625 165.124832,323.670593 
	C166.047180,320.963043 168.053818,318.624847 169.633682,316.049774 
	C167.746323,316.049774 165.780075,316.049774 163.094986,315.919067 
M225.736435,315.922455 
	C223.442062,321.208221 224.874634,326.452576 224.982513,332.697144 
	C228.177124,329.273804 228.514938,319.930389 225.736435,315.922455 
M270.517181,337.413757 
	C270.517181,337.413757 270.582886,337.524963 270.517181,337.413757 
z"/>
<path fill="#CFE379" opacity="1.000000" stroke="none" 
	d="
M264.096100,174.018112 
	C263.619598,174.600983 263.143097,175.183868 262.205048,175.693909 
	C252.525269,177.097137 243.307022,178.573181 234.088791,180.049240 
	C233.703964,178.551208 233.319138,177.053192 232.704651,174.661209 
	C234.717148,175.518158 235.751923,175.958786 236.446945,176.254730 
	C238.738358,174.596634 232.527634,169.139343 239.729935,170.248520 
	C239.976303,168.579025 240.206741,167.017487 240.534515,164.796341 
	C241.913574,165.791916 242.799316,166.431366 243.761749,167.126160 
	C243.497116,161.142212 243.497116,161.142212 247.484802,162.342957 
	C249.119370,161.785599 250.143356,160.852539 251.347916,160.398346 
	C264.187408,155.557236 277.055542,150.792007 289.915771,146.005951 
	C290.303009,148.712875 290.690247,151.419785 290.698883,154.532333 
	C288.929688,156.205444 287.303650,157.294968 286.188507,158.770599 
	C280.819916,165.874512 273.978760,170.752182 265.244324,172.837891 
	C264.846649,172.364548 264.571564,172.154541 264.296448,171.944519 
	C264.207703,172.649048 264.118958,173.353592 264.033386,174.026245 
	C264.036530,173.994370 264.096100,174.018112 264.096100,174.018112 
z"/>
<path fill="#8EC642" opacity="1.000000" stroke="none" 
	d="
M283.083557,203.870270 
	C284.430878,204.423309 285.778198,204.976349 287.879425,205.838867 
	C285.246765,207.467346 282.974579,208.872864 280.106110,210.647232 
	C281.765442,210.849030 282.903259,210.987411 284.041107,211.125793 
	C284.257843,211.494385 284.474579,211.862976 284.691315,212.231552 
	C282.402283,213.639069 280.113281,215.046570 277.524445,216.638443 
	C278.604492,216.882599 279.561127,217.098862 281.903534,217.628403 
	C279.123596,219.635422 277.085449,221.106903 275.537567,222.224426 
	C275.247040,223.626465 275.396393,225.093994 274.736664,225.759476 
	C265.590820,234.985382 253.701691,240.540100 241.883331,234.589264 
	C245.331787,228.176712 248.780136,221.764359 252.905273,215.153305 
	C263.415894,211.259827 273.249725,207.565048 283.083557,203.870270 
z"/>
<path fill="#ACE2ED" opacity="1.000000" stroke="none" 
	d="
M149.895309,129.923111 
	C150.105469,125.916664 150.100967,121.884476 150.577728,117.910011 
	C151.239120,112.396294 152.202805,106.915733 153.147766,101.440079 
	C153.984451,96.591957 155.279922,95.857735 159.199356,98.683769 
	C167.147141,104.414391 174.861740,110.468399 182.617371,116.829681 
	C181.268234,117.556984 179.974167,117.843712 178.526871,118.164391 
	C178.488480,118.651588 178.412323,119.617912 178.410507,119.640816 
	C176.329681,119.416946 174.662720,118.802353 173.252502,119.170715 
	C169.596558,120.125679 166.117065,121.777733 162.448685,122.657738 
	C158.376144,123.634705 156.288177,125.660454 156.718323,129.805420 
	C154.468369,126.453278 152.663528,126.254478 151.044113,129.968292 
	C151.005524,130.002563 150.937027,130.079758 150.674622,130.053665 
	C150.239929,129.992752 150.067627,129.957932 149.895309,129.923111 
z"/>
<path fill="#D8E67B" opacity="1.000000" stroke="none" 
	d="
M289.930603,145.579971 
	C277.055542,150.792007 264.187408,155.557236 251.347916,160.398346 
	C250.143356,160.852539 249.119370,161.785599 247.816971,162.540588 
	C244.759109,157.460266 250.511032,155.639160 252.324280,154.086899 
	C261.742035,146.024658 271.954742,138.875305 282.042297,131.618958 
	C286.137878,128.672867 287.105194,129.201721 288.021271,133.966736 
	C288.735443,137.681839 289.309235,141.423920 289.930603,145.579971 
z"/>
<path fill="#61697A" opacity="1.000000" stroke="none" 
	d="
M150.057114,264.372559 
	C153.725067,264.266235 157.393005,264.159912 161.586380,264.445099 
	C163.158768,265.541840 164.117371,266.482849 165.267151,266.913696 
	C172.344711,269.565643 178.485718,273.348145 182.178391,280.263763 
	C177.415573,284.276154 172.652771,288.288513 167.463821,291.893707 
	C165.334427,288.791840 163.631149,286.097137 161.927872,283.402466 
	C163.509552,281.506683 165.091248,279.610901 166.192566,278.290863 
	C157.735718,275.802948 148.989975,273.230072 140.498718,270.331665 
	C143.854507,268.128296 146.955811,266.250458 150.057114,264.372559 
z"/>
<path fill="#A2CD3C" opacity="1.000000" stroke="none" 
	d="
M289.946442,175.016266 
	C290.689117,175.233673 292.093018,175.528961 292.077942,175.657104 
	C291.681763,179.020508 291.138733,182.366623 290.563873,186.084442 
	C294.205902,188.859818 290.079895,189.644150 287.198181,191.014435 
	C285.858276,191.842010 285.265961,193.097717 284.420319,193.301422 
	C282.242493,193.825989 279.835541,193.520813 277.729004,194.197357 
	C271.170105,196.303802 264.708008,198.711716 258.208374,201.002716 
	C259.739288,195.564499 261.270203,190.126297 263.362366,184.344543 
	C265.675446,183.641068 267.504791,183.492691 269.165558,182.884308 
	C276.120056,180.336731 283.023987,177.651230 289.946442,175.016266 
z"/>
<path fill="#ACD139" opacity="1.000000" stroke="none" 
	d="
M234.076843,180.388763 
	C243.307022,178.573181 252.525269,177.097137 261.973022,175.892761 
	C260.239746,180.265121 258.276947,184.365829 255.723434,188.783661 
	C252.793671,189.874298 250.446213,190.623550 248.117020,191.425812 
	C240.816727,193.940369 233.523315,196.474899 226.227234,199.001694 
	C226.495941,197.342316 226.764664,195.682922 227.443329,194.430191 
	C228.138794,195.081512 228.424316,195.326172 228.709839,195.570847 
	C228.650421,194.901352 228.591003,194.231857 228.531586,193.562363 
	C228.215683,192.462875 227.918152,191.357712 227.580399,190.264984 
	C226.592911,187.070038 228.230469,186.818359 230.946625,187.631226 
	C230.622437,185.184372 230.322342,182.919357 230.175552,181.811478 
	C231.930115,178.116913 232.712952,185.583130 234.076843,180.388763 
z"/>
<path fill="#CDD0D5" opacity="1.000000" stroke="none" 
	d="
M201.901382,240.095566 
	C200.935516,244.135513 199.969666,248.175461 198.860367,252.660736 
	C198.810883,253.070099 198.904816,253.034134 198.998764,252.998169 
	C201.438049,252.001846 203.877335,251.005493 206.795883,250.252533 
	C209.922256,253.666794 212.569366,256.837677 215.216461,260.008545 
	C211.389328,262.664154 207.562195,265.319794 203.227295,267.685822 
	C196.771759,261.189911 190.823959,254.983627 184.876160,248.777328 
	C186.158844,243.758698 187.441544,238.740067 189.217621,233.408020 
	C193.774460,235.428268 197.837921,237.761917 201.901382,240.095566 
z"/>
<path fill="#96C93E" opacity="1.000000" stroke="none" 
	d="
M258.033478,201.324768 
	C264.708008,198.711716 271.170105,196.303802 277.729004,194.197357 
	C279.835541,193.520813 282.242493,193.825989 284.420319,193.301422 
	C285.265961,193.097717 285.858276,191.842010 286.847168,191.053284 
	C288.354004,191.621735 289.579742,192.202408 291.795349,193.252029 
	C289.456604,194.961960 287.525909,196.373550 285.158539,198.104401 
	C286.840607,198.240768 288.128571,198.345200 289.416534,198.449631 
	C289.629913,198.818192 289.843292,199.186752 290.056671,199.555328 
	C287.852539,200.801086 285.648376,202.046829 283.263916,203.581421 
	C273.249725,207.565048 263.415894,211.259827 253.145950,214.924652 
	C254.426071,210.478729 256.142334,206.062775 258.033478,201.324768 
z"/>
<path fill="#ACD139" opacity="1.000000" stroke="none" 
	d="
M290.132629,174.726410 
	C283.023987,177.651230 276.120056,180.336731 269.165558,182.884308 
	C267.504791,183.492691 265.675446,183.641068 263.521484,184.002136 
	C263.483002,180.958862 263.846710,177.914490 264.153259,174.444107 
	C264.096100,174.018112 264.036530,173.994370 264.347656,174.072739 
	C264.894806,173.801147 265.130829,173.451187 265.366852,173.101227 
	C273.978760,170.752182 280.819916,165.874512 286.188507,158.770599 
	C287.303650,157.294968 288.929688,156.205444 290.690186,154.952667 
	C291.493347,160.422470 292.040314,165.873077 292.257080,171.336792 
	C292.296997,172.342819 290.999146,173.401947 290.132629,174.726410 
M290.590729,169.342209 
	C290.590729,169.342209 290.459534,169.567795 290.459534,169.567795 
	C290.459534,169.567795 290.782593,169.523911 290.590729,169.342209 
z"/>
<path fill="#A2CD3C" opacity="1.000000" stroke="none" 
	d="
M226.225922,199.401398 
	C233.523315,196.474899 240.816727,193.940369 248.117020,191.425812 
	C250.446213,190.623550 252.793671,189.874298 255.503204,189.052368 
	C252.414932,195.194183 248.956207,201.384399 244.809250,207.785080 
	C241.376938,208.523254 238.590591,208.893753 235.899063,209.617020 
	C232.236160,210.601334 228.645676,211.855026 225.024124,212.993195 
	C225.284851,208.583145 222.263901,203.874451 226.225922,199.401398 
z"/>
<path fill="#417CA0" opacity="1.000000" stroke="none" 
	d="
M158.566864,185.399506 
	C156.107422,183.897141 153.647980,182.394791 151.188538,180.892441 
	C151.298981,180.587646 151.409439,180.282867 151.519882,179.978088 
	C153.179779,179.978088 154.839691,179.978088 157.778885,179.978088 
	C154.270004,177.476379 151.664337,175.618637 149.058685,173.760895 
	C149.236191,173.416534 149.413696,173.072174 149.591202,172.727814 
	C151.215408,173.079758 152.839600,173.431702 155.127899,173.927536 
	C153.920029,171.952789 152.959167,170.381882 152.496445,168.436310 
	C158.060440,169.049774 162.271805,167.211472 166.323822,164.003357 
	C166.855484,163.745056 167.062561,163.499908 167.369354,163.169189 
	C167.568176,163.167267 167.950851,163.059174 168.274689,163.079391 
	C169.388474,163.422165 170.178406,163.744736 170.980774,164.036346 
	C170.993195,164.005402 170.926819,164.011780 170.959320,164.236115 
	C170.991806,164.460449 171.103561,164.899811 171.101898,165.238632 
	C171.737915,166.722488 172.375610,167.867523 173.004791,169.003235 
	C172.996246,168.993927 172.981583,168.973679 172.999237,169.282379 
	C173.350082,170.069550 173.683289,170.548019 174.008209,171.013092 
	C173.999908,170.999710 173.984146,170.972443 173.979431,171.313614 
	C173.982025,172.109665 173.989365,172.564560 173.925278,173.238251 
	C173.590988,173.833908 173.328125,174.210754 172.745300,174.753693 
	C171.937592,175.390137 171.449844,175.860474 170.796753,176.618423 
	C167.718430,182.004105 164.805466,187.102188 161.892502,192.200256 
	C159.265213,190.835098 156.637924,189.469940 154.010635,188.104782 
	C154.209579,187.648483 154.408539,187.192184 154.607498,186.735886 
	C155.383789,186.735886 156.160065,186.735886 157.539078,186.818268 
	C158.760620,186.900665 159.379440,186.900665 160.829514,186.900665 
	C159.601517,186.085953 159.084183,185.742722 158.566864,185.399506 
M161.963562,172.675446 
	C162.289902,173.131805 162.616257,173.588150 162.926254,174.653305 
	C163.047256,175.192230 163.168259,175.731171 163.289276,176.270111 
	C163.507523,176.197845 163.725769,176.125580 163.944016,176.053329 
	C163.646072,175.352844 163.348114,174.652374 163.020935,173.355392 
	C162.713608,172.877411 162.406265,172.399414 162.071075,171.379974 
	C161.829391,171.140930 161.587708,170.901886 161.346008,170.662842 
	C161.533493,171.137222 161.720963,171.611603 161.963562,172.675446 
M164.999008,178.870667 
	C164.787613,178.529922 164.608826,178.157486 164.335770,177.876770 
	C164.284698,177.824280 163.855865,178.139252 163.601364,178.284637 
	C163.876221,178.520721 164.151062,178.756805 164.999008,178.870667 
z"/>
<path fill="#9BD3E2" opacity="1.000000" stroke="none" 
	d="
M156.991745,129.986526 
	C156.288177,125.660454 158.376144,123.634705 162.448685,122.657738 
	C166.117065,121.777733 169.596558,120.125679 173.252502,119.170715 
	C174.662720,118.802353 176.329681,119.416946 178.410507,119.640816 
	C178.412323,119.617912 178.488480,118.651588 178.526871,118.164391 
	C179.974167,117.843712 181.268234,117.556984 182.825684,117.094398 
	C184.261124,120.260628 190.329636,120.164551 188.969757,125.674118 
	C188.973953,126.060776 188.963196,126.056702 188.731674,126.141899 
	C188.222031,126.424149 188.022171,126.681908 187.695984,127.007172 
	C187.491379,127.013962 187.081985,127.012085 186.733826,127.006256 
	C185.595001,127.336990 184.804352,127.673569 184.006989,128.005951 
	C184.000290,128.001770 184.005295,128.017761 183.647461,128.012085 
	C181.863968,128.674332 180.438324,129.342270 179.006470,130.005722 
	C179.000244,130.001221 179.005234,130.016464 178.655594,130.011230 
	C177.206589,130.674362 176.107208,131.342728 175.003922,132.005554 
	C175.000000,132.000000 175.006638,132.010391 174.667267,132.005524 
	C173.556610,132.337036 172.785324,132.673386 172.007050,133.007843 
	C172.000076,133.005920 172.010269,133.022018 171.752838,132.906586 
	C171.001297,132.522995 170.507187,132.254868 169.998718,131.744385 
	C169.863571,131.224136 169.742798,130.946198 169.622009,130.668274 
	C169.497253,130.757355 169.258713,130.916611 169.264145,130.925400 
	C169.491943,131.294678 169.741547,131.650513 169.836060,132.313721 
	C167.791840,133.750351 165.900009,134.881287 164.004089,136.006104 
	C164.000000,136.000000 164.008087,136.012527 163.701965,136.028870 
	C162.905121,136.368652 162.414398,136.692078 161.728485,137.024963 
	C161.533295,137.034393 161.142471,137.039322 160.864868,136.864868 
	C160.059402,135.795563 159.531525,134.900726 159.001831,134.002945 
	C159.000000,134.000000 158.996078,133.994461 158.997330,133.646606 
	C158.335556,132.203751 157.672531,131.108749 157.005249,130.007507 
	C157.000992,130.001266 156.991745,129.986526 156.991745,129.986526 
M168.523071,127.609467 
	C168.467056,127.831963 168.411041,128.054459 168.355026,128.276947 
	C168.493729,128.133987 168.632416,127.991028 168.523071,127.609467 
M180.236862,126.181580 
	C180.408768,126.124077 180.580658,126.066582 180.752563,126.009087 
	C180.579025,125.953003 180.405487,125.896927 180.236862,126.181580 
z"/>
<path fill="#9EA3AE" opacity="1.000000" stroke="none" 
	d="
M184.654419,249.058777 
	C190.823959,254.983627 196.771759,261.189911 202.868164,267.704437 
	C198.751144,269.722717 194.485519,271.432800 189.487823,273.011169 
	C185.169510,269.249115 181.583267,265.618774 177.997040,261.988434 
	C180.142242,257.772369 182.287445,253.556290 184.654419,249.058777 
z"/>
<path fill="#8FBCD0" opacity="1.000000" stroke="none" 
	d="
M200.029694,139.841919 
	C201.235504,139.168472 202.441330,138.495026 203.914337,137.672348 
	C207.925446,140.896301 199.318649,147.991913 207.690247,150.006683 
	C206.608215,150.639969 205.911026,151.048035 204.729370,151.729218 
	C203.261459,151.086716 202.277985,150.171112 201.220566,149.186646 
	C199.965393,149.737122 198.509537,150.375626 196.747314,151.026886 
	C195.965942,151.365189 195.490967,151.690704 195.008499,152.008423 
	C195.001022,152.000610 195.008041,152.020355 194.626373,152.013885 
	C193.132767,152.691391 192.020844,153.375336 190.701416,154.052734 
	C190.493912,154.046188 190.079346,154.022522 189.732422,154.016830 
	C188.596725,154.346130 187.807983,154.681137 187.009918,155.009491 
	C187.000610,155.002838 187.007675,155.025238 186.649384,155.018768 
	C185.576889,155.002029 184.862717,154.991791 184.148529,154.981537 
	C182.440186,152.241409 180.731827,149.501266 179.062958,146.149460 
	C179.737534,144.691391 180.372620,143.845001 181.003510,142.998703 
	C180.999313,142.998779 180.995865,143.006638 181.297714,142.988586 
	C182.069199,142.646332 182.538849,142.322113 183.003860,141.998337 
	C182.999222,141.998779 182.994598,142.006851 183.353317,142.011902 
	C185.144089,143.008453 186.576141,143.999939 188.032196,145.288666 
	C188.372803,146.055176 188.689407,146.524460 189.028168,147.291504 
	C189.364441,148.059998 189.678589,148.530746 190.005432,149.244843 
	C190.136581,149.768311 190.255051,150.048462 190.373505,150.328598 
	C190.498566,150.239441 190.737396,150.079391 190.732361,150.071289 
	C190.503021,149.703186 190.252289,149.348404 189.978119,148.695374 
	C189.632828,147.933746 189.313492,147.468811 188.974670,146.703979 
	C188.634048,145.937881 188.312927,145.471695 187.994644,144.616364 
	C188.668655,142.484100 189.339798,140.740967 190.004852,138.997986 
	C189.998779,138.998169 189.993164,139.008698 190.333710,139.009872 
	C191.452835,138.673782 192.231415,138.336517 193.004395,137.998718 
	C192.998779,137.998169 192.994919,138.008560 193.374481,138.007187 
	C195.132538,138.584442 196.487137,139.234070 197.900223,139.710083 
	C198.551010,139.929276 199.316315,139.808533 200.029694,139.841919 
z"/>
<path fill="#2F6A93" opacity="1.000000" stroke="none" 
	d="
M162.036285,192.476471 
	C164.805466,187.102188 167.718430,182.004105 171.147751,176.497589 
	C172.131149,175.588623 172.598190,175.088104 173.065247,174.587585 
	C173.328125,174.210754 173.590988,173.833908 174.171417,173.364136 
	C174.653748,173.353836 174.818512,173.436478 174.990158,173.507172 
	C174.997040,173.495224 174.970474,173.506393 174.849869,173.895859 
	C174.770172,174.554016 174.811066,174.822693 175.009766,175.362152 
	C175.781540,176.426849 176.395508,177.220779 177.004745,178.007339 
	C177.000000,177.999985 176.990631,177.985062 176.975403,178.302582 
	C177.310852,179.085922 177.661545,179.551758 178.006165,180.008713 
	C178.000122,179.999832 177.990280,179.980682 177.959305,180.327774 
	C178.289139,181.456329 178.649963,182.237793 179.005386,183.009628 
	C179.000000,183.000000 178.988907,182.980881 178.975891,183.360352 
	C177.971512,185.169052 176.980148,186.598267 175.992538,188.009583 
	C175.996292,187.991669 176.029709,188.006622 175.674042,187.993500 
	C174.185730,188.924301 173.053085,189.868210 171.942322,191.222122 
	C172.093430,192.594482 171.958878,193.704636 172.400070,194.492264 
	C173.878021,197.130661 174.571136,199.445847 171.224777,201.242752 
	C170.907242,201.413269 171.065369,202.469604 170.838043,203.347321 
	C170.118073,204.063034 169.562744,204.546112 168.989548,205.030121 
	C168.971664,205.031052 168.935883,205.038971 168.935883,205.038971 
	C164.236679,204.270935 162.916031,202.401535 165.061371,199.678406 
	C162.781418,198.135025 160.491638,196.585007 157.077423,194.273804 
	C159.985733,194.113235 161.363129,194.037201 162.740524,193.961166 
	C162.553711,193.558334 162.366882,193.155518 162.036285,192.476471 
M169.417297,190.572433 
	C169.055206,190.595215 168.693100,190.617996 168.331009,190.640793 
	C168.404892,190.900772 168.478790,191.160751 168.552673,191.420731 
	C168.802292,191.281906 169.051910,191.143097 169.417297,190.572433 
z"/>
<path fill="#92C4D7" opacity="1.000000" stroke="none" 
	d="
M161.142471,137.039322 
	C161.142471,137.039322 161.533295,137.034393 162.041412,137.013458 
	C163.035706,136.665863 163.521896,136.339188 164.008087,136.012527 
	C164.008087,136.012527 164.000000,136.000000 164.395264,136.012756 
	C167.064774,134.706238 170.964920,137.295334 172.010269,133.022018 
	C172.010269,133.022018 172.000076,133.005920 172.344147,133.012665 
	C173.461014,132.683075 174.233826,132.346741 175.006638,132.010406 
	C175.006638,132.010391 175.000000,132.000000 175.351532,132.003082 
	C176.803772,131.342926 177.904510,130.679688 179.005234,130.016464 
	C179.005234,130.016464 179.000244,130.001221 179.349091,130.015625 
	C180.799347,130.687790 181.900757,131.345566 183.001083,132.001663 
	C183.000000,132.000000 182.997772,131.996719 183.010651,132.299271 
	C183.350464,133.070007 183.677414,133.538193 184.002182,134.003189 
	C184.000000,134.000000 183.996002,133.993362 183.992844,134.333511 
	C184.326996,135.449966 184.664291,136.226257 185.000793,137.001282 
	C185.000000,137.000000 184.998383,136.997437 184.997208,137.366074 
	C184.328888,139.158768 183.661743,140.582809 182.994598,142.006851 
	C182.994598,142.006851 182.999222,141.998779 182.704712,142.022369 
	C181.938751,142.366180 181.467300,142.686417 180.995865,143.006638 
	C180.995865,143.006638 180.999313,142.998779 180.646881,143.006454 
	C179.506546,143.425278 178.718658,143.836441 177.930771,144.247589 
	C176.951202,143.511887 175.971649,142.776184 174.026138,141.315018 
	C174.843262,143.736496 175.287155,145.051895 175.441620,146.691544 
	C173.436234,147.344467 171.720230,147.673157 169.699005,148.021835 
	C168.928009,148.381500 168.462265,148.721161 167.846191,149.288223 
	C167.189743,149.682693 166.683640,149.849747 166.021423,149.736954 
	C165.242844,148.637009 164.620361,147.816910 163.998932,146.998413 
	C164.000000,147.000000 164.002121,147.003189 163.985657,146.701508 
	C163.644867,145.931366 163.320526,145.462906 162.998093,144.997223 
	C163.000000,145.000000 163.003494,145.005692 163.008392,144.634308 
	C162.340912,142.840134 161.668533,141.417343 160.998077,139.997269 
	C161.000000,140.000000 161.003784,140.005295 161.016479,139.633881 
	C161.066925,138.521408 161.104691,137.780365 161.142471,137.039322 
M173.109543,139.286407 
	C173.199585,139.333786 173.289642,139.381149 173.379684,139.428528 
	C173.255432,139.283859 173.131180,139.139206 172.996063,138.499527 
	C172.872955,138.216003 172.749863,137.932465 172.626770,137.648941 
	C172.498917,137.739059 172.254944,137.901016 172.259872,137.908981 
	C172.491379,138.283157 172.744492,138.643982 173.109543,139.286407 
z"/>
<path fill="#21517F" opacity="1.000000" stroke="none" 
	d="
M188.867401,201.006836 
	C188.925888,203.471207 189.158554,205.947861 188.985886,208.395935 
	C188.855576,210.243805 188.580765,213.391525 187.718781,213.632736 
	C185.106750,214.363724 181.673370,214.930237 179.484222,213.788574 
	C175.670715,211.799789 172.548172,208.486069 169.035934,205.383362 
	C168.935883,205.038971 168.971664,205.031052 169.369736,205.054092 
	C171.313110,204.789566 172.933136,204.693878 174.372208,204.133484 
	C175.091599,203.853363 175.480515,202.724579 176.008148,201.989426 
	C175.997375,201.999222 175.972336,202.014053 176.318665,202.045090 
	C177.453033,201.712585 178.241074,201.349045 179.014923,200.993179 
	C179.000748,201.000854 178.973511,201.018158 179.290253,201.014282 
	C180.080261,200.667725 180.553543,200.325043 181.013107,199.990936 
	C180.999374,199.999481 180.971207,200.015411 181.315155,200.032043 
	C182.452118,199.692871 183.245117,199.337082 184.023224,198.990417 
	C184.008316,198.999527 183.983643,199.024582 184.259491,199.102783 
	C185.031357,199.462921 185.527374,199.744843 186.011337,200.013580 
	C185.999298,200.000397 185.972305,199.977036 185.989349,200.271545 
	C186.960068,200.712982 187.913727,200.859909 188.867401,201.006836 
M176.524368,206.407013 
	C176.408737,206.669083 176.259064,206.923431 176.196991,207.197617 
	C176.176804,207.286743 176.385620,207.427704 176.489685,207.544968 
	C176.605057,207.283768 176.720428,207.022568 176.524368,206.407013 
z"/>
<path fill="#7395B1" opacity="1.000000" stroke="none" 
	d="
M196.397659,180.023010 
	C194.913559,176.642578 193.429459,173.262161 192.085983,169.239502 
	C196.993362,166.557693 201.760101,164.518112 206.397644,162.533798 
	C207.418274,163.926392 208.188995,164.977997 208.973083,166.019775 
	C208.986450,166.009949 208.976913,166.026291 208.970367,166.373047 
	C209.630676,167.815887 210.297531,168.911987 210.977646,170.004700 
	C210.990891,170.001328 210.980591,170.026154 210.960083,170.398346 
	C209.898422,172.029053 208.979172,173.422211 207.780869,174.507202 
	C206.644272,175.536316 205.215393,176.242615 203.693161,177.350342 
	C203.332443,178.725464 203.193588,179.841125 203.029739,180.977097 
	C203.004745,180.997421 202.957138,181.040848 202.660629,180.835373 
	C200.375305,180.427597 198.386475,180.225296 196.397659,180.023010 
M199.608780,171.252487 
	C199.337387,170.655838 199.065994,170.059189 198.794586,169.462540 
	C198.540909,169.602646 198.287247,169.742752 198.033569,169.882843 
	C198.414490,170.461990 198.795425,171.041122 199.608780,171.252487 
z"/>
<path fill="#797F8E" opacity="1.000000" stroke="none" 
	d="
M177.581360,262.021301 
	C181.583267,265.618774 185.169510,269.249115 189.118805,272.973206 
	C187.248932,275.360535 185.015991,277.654114 182.480713,280.105743 
	C178.485718,273.348145 172.344711,269.565643 165.267151,266.913696 
	C164.117371,266.482849 163.158768,265.541840 162.042542,264.496521 
	C167.037415,263.455658 172.101547,262.754913 177.581360,262.021301 
z"/>
<path fill="#96C93E" opacity="1.000000" stroke="none" 
	d="
M224.995056,213.389557 
	C228.645676,211.855026 232.236160,210.601334 235.899063,209.617020 
	C238.590591,208.893753 241.376938,208.523254 244.543671,207.992172 
	C240.621109,214.374359 236.275909,220.759918 231.930695,227.145493 
	C231.283997,227.176254 230.637314,227.207001 229.990616,227.237762 
	C228.315750,222.753815 226.640869,218.269867 224.995056,213.389557 
z"/>
<path fill="#122F64" opacity="1.000000" stroke="none" 
	d="
M261.699707,329.829132 
	C255.017944,333.429749 249.027725,331.540192 247.957397,325.727661 
	C247.236786,321.814331 248.110046,318.271912 251.930573,316.364075 
	C255.488358,314.587524 259.098297,314.840820 262.079285,317.750916 
	C265.008118,320.610107 264.894806,324.995392 261.699707,329.829132 
M259.089661,324.410034 
	C258.962494,321.776886 259.101013,318.557007 255.208176,319.387695 
	C254.144379,319.614685 253.144852,322.480835 253.059296,324.183197 
	C252.995697,325.448669 254.455185,326.790710 255.236282,328.098633 
	C256.488434,327.146545 257.740601,326.194427 259.089661,324.410034 
z"/>
<path fill="#1D1D1D" opacity="1.000000" stroke="none" 
	d="
M173.829193,316.212402 
	C173.829193,313.471039 173.829193,311.195038 173.829193,308.082336 
	C179.100220,310.087585 175.359726,314.281342 177.416870,315.381592 
	C180.673096,316.318542 184.912354,316.342957 186.886673,318.469879 
	C188.585297,320.299805 188.490295,324.727600 187.754715,327.645294 
	C186.858261,331.201172 183.592194,332.521576 179.765747,331.723267 
	C178.013702,331.357697 176.206924,331.254639 173.829193,330.958282 
	C173.829193,326.578674 173.829193,321.628235 173.829193,316.212402 
M177.948410,328.110077 
	C180.113144,330.162354 182.911362,330.490417 184.227966,327.987122 
	C185.352051,325.849884 185.280762,322.708282 184.721451,320.241486 
	C184.489532,319.218628 180.464523,317.857117 180.133347,318.261627 
	C178.650864,320.072296 177.740082,322.414124 176.923935,324.672974 
	C176.639893,325.459106 177.223053,326.558594 177.948410,328.110077 
z"/>
<path fill="#80ABC3" opacity="1.000000" stroke="none" 
	d="
M197.053680,151.014114 
	C198.509537,150.375626 199.965393,149.737122 201.220566,149.186646 
	C202.277985,150.171112 203.261459,151.086716 204.557526,152.013275 
	C209.257401,155.050888 208.719696,148.840759 212.618759,148.747604 
	C211.621140,152.310593 210.647171,155.789139 209.212250,159.594513 
	C207.704956,160.070541 206.423187,159.885132 205.653046,160.426941 
	C202.324646,162.768616 198.953583,164.086853 195.006561,162.009232 
	C195.000031,162.000000 194.988525,161.980545 195.001480,161.645569 
	C194.682617,160.551178 194.350815,159.791794 194.014435,159.024673 
	C194.009857,159.016953 194.001022,159.001511 193.989136,158.698288 
	C193.650513,157.928604 193.323761,157.462158 192.998505,156.997849 
	C193.000000,157.000000 193.002762,157.004333 193.013306,156.637131 
	C193.685257,154.853409 194.346649,153.436874 195.008041,152.020355 
	C195.008041,152.020355 195.001022,152.000610 195.310089,151.989029 
	C196.097321,151.656326 196.575500,151.335220 197.053680,151.014114 
z"/>
<path fill="#21517F" opacity="1.000000" stroke="none" 
	d="
M196.406616,180.441284 
	C198.386475,180.225296 200.375305,180.427597 202.667236,181.141022 
	C203.304398,182.110168 203.638443,182.568176 203.964584,183.301468 
	C204.062057,183.859726 204.167450,184.142700 204.272827,184.425674 
	C204.444336,184.286484 204.778549,184.048904 204.762848,184.022934 
	C204.543365,183.660049 204.276093,183.326080 204.026337,182.676239 
	C203.706375,181.897202 203.380554,181.426987 203.054733,180.956772 
	C203.193588,179.841125 203.332443,178.725464 204.108612,177.338913 
	C207.843826,177.698135 210.941727,178.328262 214.141083,179.309570 
	C214.821899,181.779968 215.401291,183.899170 215.992401,186.009232 
	C216.004150,186.000092 216.030716,185.986664 215.680878,185.948608 
	C214.544144,186.279343 213.757217,186.648132 212.981628,187.010498 
	C212.992935,187.004044 213.015121,186.990448 212.695419,186.969391 
	C211.911453,187.302917 211.447189,187.657516 210.991547,188.006165 
	C211.000168,188.000214 211.018845,187.990662 210.671722,187.950562 
	C209.543457,188.277145 208.762329,188.643845 207.989929,189.005280 
	C207.998688,189.000031 208.014069,188.986603 207.652771,188.963287 
	C205.859879,189.638077 204.428284,190.336197 202.996964,191.014893 
	C202.997223,190.995499 203.031494,191.013626 202.682190,191.010605 
	C201.747101,191.362213 201.161301,191.716843 200.481522,192.084518 
	C200.387543,192.097565 200.250092,191.966751 200.250092,191.966751 
	C198.971924,188.264343 197.693741,184.561951 196.406616,180.441284 
M205.807907,186.723755 
	C205.603867,186.724167 205.399811,186.724564 205.195770,186.724960 
	C205.202011,186.873184 205.182037,187.141464 205.218918,187.149521 
	C205.414719,187.192307 205.624786,187.169800 205.807907,186.723755 
z"/>
<path fill="#122F64" opacity="1.000000" stroke="none" 
	d="
M200.169708,192.378876 
	C200.250092,191.966751 200.387543,192.097565 200.862946,192.109589 
	C201.902725,191.752274 202.467117,191.382950 203.031494,191.013626 
	C203.031494,191.013626 202.997223,190.995499 203.363495,191.073334 
	C205.148926,191.778015 206.568069,192.404846 207.996262,193.014343 
	C208.005310,192.997025 207.966293,192.994522 207.920868,193.337250 
	C208.248032,194.465759 208.620605,195.251572 209.001190,196.015289 
	C209.009216,195.993195 208.962814,195.985672 208.969604,196.341827 
	C209.315750,197.309387 209.655090,197.920776 209.962921,198.873596 
	C211.258591,200.726181 212.585754,202.237350 213.912903,203.748505 
	C211.129013,206.967239 208.345093,210.185989 205.561188,213.404724 
	C205.063889,213.144104 204.566605,212.883484 204.069305,212.622849 
	C202.742645,206.012238 201.415985,199.401611 200.169708,192.378876 
z"/>
<path fill="#8FBCD0" opacity="1.000000" stroke="none" 
	d="
M170.004242,148.001831 
	C171.720230,147.673157 173.436234,147.344467 175.527710,147.011536 
	C177.031998,150.443329 178.160812,153.879379 178.932800,157.698639 
	C178.056259,158.393372 177.536530,158.704865 177.008713,159.008789 
	C177.000610,159.001221 177.008987,159.022217 176.710388,159.037643 
	C175.948105,159.374054 175.484421,159.695038 175.011688,160.009445 
	C175.002640,160.002884 175.005493,160.024750 174.662964,160.020050 
	C173.524460,160.351440 172.728470,160.687500 171.737885,161.036346 
	C171.543289,161.049133 171.153275,161.052948 170.866913,160.871475 
	C169.726318,159.454147 168.872101,158.218292 168.015076,156.617371 
	C167.667206,155.166443 167.322144,154.080597 166.896393,152.822784 
	C166.556061,152.764938 166.296417,152.879074 166.055099,153.325241 
	C166.710922,154.774628 167.348434,155.891998 167.976501,157.274628 
	C167.955856,157.716522 167.944672,157.893127 167.659546,158.185333 
	C166.574677,158.879059 165.763763,159.457169 164.656052,159.906281 
	C162.887253,158.853897 161.415237,157.930481 159.836853,156.731934 
	C159.146027,155.678421 158.561569,154.900055 158.117432,153.811218 
	C159.514481,152.648865 160.771210,151.796982 162.398804,150.965698 
	C163.905640,150.663147 165.041580,150.339981 166.177521,150.016815 
	C166.683640,149.849747 167.189743,149.682693 168.143250,149.243256 
	C169.061844,148.647842 169.533051,148.324844 170.004242,148.001831 
z"/>
<path fill="#1D1D1D" opacity="1.000000" stroke="none" 
	d="
M155.432159,325.199524 
	C156.160812,327.409637 156.735596,329.269165 157.310379,331.128693 
	C156.858566,331.440308 156.406754,331.751892 155.954941,332.063507 
	C155.070724,330.808624 153.643707,329.646912 153.409073,328.280487 
	C152.821167,324.856537 150.637161,324.952759 147.988449,324.762207 
	C145.013596,324.548157 143.883453,325.825714 143.194839,328.413574 
	C142.845459,329.726501 141.839203,330.864655 141.129898,332.081818 
	C140.609802,331.860748 140.089706,331.639679 139.569611,331.418610 
	C140.374939,328.744568 141.125961,326.052643 141.998596,323.400757 
	C143.239670,319.629181 144.465851,315.845581 145.931854,312.159973 
	C146.324036,311.174011 147.579681,309.880615 148.412888,309.899170 
	C149.294006,309.918793 150.556946,311.177399 150.935791,312.168945 
	C152.529358,316.339783 153.854752,320.613129 155.432159,325.199524 
M150.148788,322.339996 
	C149.813187,319.448120 149.477585,316.556244 149.141983,313.664368 
	C148.772217,313.671875 148.402451,313.679413 148.032700,313.686920 
	C147.166031,316.405609 146.299362,319.124329 145.329254,322.167511 
	C147.001480,322.266785 148.124100,322.333466 150.148788,322.339996 
z"/>
<path fill="#122F64" opacity="1.000000" stroke="none" 
	d="
M276.423401,312.203308 
	C274.556274,313.291351 272.376648,314.159363 275.649170,315.828430 
	C276.367523,316.194733 276.613037,317.488190 277.076263,318.354706 
	C271.361603,321.349182 275.413696,326.852478 273.547791,331.385498 
	C272.512695,331.475952 271.135803,331.596283 269.935852,331.701172 
	C269.536804,331.108978 269.257416,330.865540 269.194427,330.575134 
	C268.298218,326.444885 270.270264,322.094391 267.209930,317.950684 
	C265.510712,315.649963 272.187897,308.072693 275.398132,308.227722 
	C278.758087,308.390045 278.684998,309.992218 276.423401,312.203308 
z"/>
<path fill="#122F64" opacity="1.000000" stroke="none" 
	d="
M286.807831,320.510986 
	C287.150604,323.529877 285.015839,327.166412 289.546051,328.170410 
	C289.083984,329.412659 288.798645,331.612122 288.130066,331.735504 
	C284.804596,332.349304 282.373260,331.216400 281.750977,327.355103 
	C281.256470,324.286682 279.606262,321.246185 279.782074,318.270874 
	C279.972656,315.045197 281.725861,311.951324 285.907196,311.769348 
	C286.522217,313.133667 286.759338,314.764832 287.701569,315.550964 
	C291.065826,318.357880 291.154144,318.263519 286.807831,320.510986 
z"/>
<path fill="#122F64" opacity="1.000000" stroke="none" 
	d="
M233.013062,322.200806 
	C233.095383,317.233124 235.169281,314.997894 239.455093,315.395569 
	C240.883865,315.528137 242.206512,316.804626 243.577682,317.558197 
	C243.345352,318.112946 243.113037,318.667725 242.880707,319.222473 
	C241.207657,319.222473 239.534607,319.222473 236.961761,319.222473 
	C239.935211,322.801239 247.286163,323.669739 243.145432,329.305023 
	C241.724503,331.238861 237.024124,330.838348 233.788651,331.226898 
	C233.516464,331.259583 232.990265,329.177094 232.493378,327.838348 
	C235.233047,328.014404 237.125076,328.135986 239.017105,328.257599 
	C239.151093,327.905548 239.285080,327.553528 239.419067,327.201477 
	C237.320786,325.644867 235.222504,324.088257 233.013062,322.200806 
z"/>
<path fill="#21517F" opacity="1.000000" stroke="none" 
	d="
M214.200714,203.617920 
	C212.585754,202.237350 211.258591,200.726181 209.976807,198.495361 
	C209.669067,197.179031 209.315948,196.582352 208.962814,195.985672 
	C208.962814,195.985672 209.009216,195.993195 209.029541,195.665497 
	C208.688675,194.556717 208.327484,193.775620 207.966293,192.994522 
	C207.966293,192.994522 208.005310,192.997025 208.021454,192.609955 
	C208.029739,191.144135 208.021912,190.065369 208.014069,188.986603 
	C208.014069,188.986603 207.998688,189.000031 208.333435,189.028595 
	C209.451736,188.701645 210.235291,188.346146 211.018845,187.990662 
	C211.018845,187.990662 211.000168,188.000214 211.304672,188.008347 
	C212.077820,187.674469 212.546463,187.332458 213.015121,186.990448 
	C213.015121,186.990448 212.992935,187.004044 213.323944,187.021362 
	C214.446869,186.688019 215.238800,186.337341 216.030716,185.986664 
	C216.030716,185.986664 216.004150,186.000092 216.312073,186.066803 
	C217.800644,187.443741 218.981293,188.753967 220.161942,190.064209 
	C218.270798,194.538574 216.379669,199.012955 214.200714,203.617920 
z"/>
<path fill="#92C4D7" opacity="1.000000" stroke="none" 
	d="
M162.027924,150.945084 
	C160.771210,151.796982 159.514481,152.648865 157.697449,153.780182 
	C156.014282,153.974350 154.891418,153.889069 153.768539,153.803802 
	C152.723068,152.990662 151.677612,152.177536 150.070984,150.927933 
	C150.234406,150.133286 150.579666,148.454391 150.958160,146.021484 
	C151.022568,144.233612 151.053741,143.199768 151.084915,142.165909 
	C151.084915,142.165909 151.122864,142.110886 151.430023,142.063019 
	C152.160706,141.681152 152.584213,141.347153 153.003860,141.006592 
	C153.000000,141.000000 153.009109,141.011734 153.308167,140.994736 
	C154.072708,140.657669 154.538193,140.337601 155.002380,140.009689 
	C155.001099,140.001831 155.014420,140.010330 155.352036,140.016357 
	C156.462128,139.685608 157.234589,139.348846 158.003540,139.006042 
	C158.000000,139.000000 158.009415,139.012863 158.327728,139.037933 
	C159.431946,139.377121 160.217865,139.691208 161.003784,140.005295 
	C161.003784,140.005295 161.000000,140.000000 160.998688,140.354416 
	C161.666077,142.141113 162.334778,143.573410 163.003494,145.005692 
	C163.003494,145.005692 163.000000,145.000000 163.019104,145.296539 
	C163.359528,146.063126 163.680832,146.533157 164.002121,147.003189 
	C164.002121,147.003189 164.000000,147.000000 163.997467,147.341705 
	C163.339264,148.770630 162.683594,149.857849 162.027924,150.945084 
z"/>
<path fill="#122F64" opacity="1.000000" stroke="none" 
	d="
M161.635773,283.604950 
	C163.631149,286.097137 165.334427,288.791840 167.083618,291.859375 
	C163.345612,294.228058 159.738556,296.798706 155.720886,298.035095 
	C152.593201,298.997589 150.981247,296.336945 152.949860,293.535126 
	C155.399902,290.048126 158.515503,287.028748 161.635773,283.604950 
z"/>
<path fill="#92C4D7" opacity="1.000000" stroke="none" 
	d="
M187.081985,127.012085 
	C187.081985,127.012085 187.491379,127.013962 187.945953,126.942520 
	C188.588089,126.599625 188.775635,126.328163 188.963196,126.056702 
	C188.963196,126.056702 188.973953,126.060776 188.965698,126.076218 
	C194.021347,122.059677 192.345718,127.445175 193.013565,128.696426 
	C198.853546,128.555984 196.337372,132.755981 196.926849,135.578491 
	C197.012024,136.003738 197.018082,135.960037 196.763428,136.035095 
	C196.332138,136.409225 196.155502,136.708313 195.641190,137.000092 
	C194.533997,137.331390 193.764465,137.669983 192.994919,138.008575 
	C192.994919,138.008560 192.998779,137.998169 192.664810,137.998596 
	C191.551620,138.335587 190.772385,138.672134 189.993164,139.008698 
	C189.993164,139.008698 189.998779,138.998169 189.635223,139.001923 
	C187.847229,138.336273 186.422806,137.666855 184.998383,136.997437 
	C184.998383,136.997437 185.000000,137.000000 185.001587,136.662201 
	C184.667450,135.547394 184.331726,134.770386 183.996002,133.993362 
	C183.996002,133.993362 184.000000,134.000000 183.983932,133.702026 
	C183.644501,132.934952 183.321136,132.465836 182.997772,131.996719 
	C182.997772,131.996719 183.000000,132.000000 183.010040,131.651825 
	C183.348480,130.208359 183.676895,129.113068 184.005295,128.017761 
	C184.005295,128.017761 184.000290,128.001770 184.348572,128.010986 
	C185.491913,127.684151 186.286942,127.348114 187.081985,127.012085 
z"/>
<path fill="#F1F1F1" opacity="1.000000" stroke="none" 
	d="
M215.549744,259.973389 
	C212.569366,256.837677 209.922256,253.666794 207.150848,250.169571 
	C208.648071,248.468185 210.080566,246.570877 211.954330,245.892670 
	C213.315308,245.400055 215.383270,246.269516 216.897995,247.015167 
	C217.802307,247.460312 218.257111,248.832245 218.896927,249.798843 
	C222.963318,255.942001 222.784744,256.538300 215.549744,259.973389 
z"/>
<path fill="#1D1D1D" opacity="1.000000" stroke="none" 
	d="
M206.013428,318.147247 
	C206.758011,319.659424 207.576614,320.827240 207.742508,322.081360 
	C208.261932,326.007721 207.199249,329.355438 203.345139,331.197174 
	C199.929932,332.829132 196.725647,332.221252 194.359558,329.353302 
	C191.780579,326.227325 191.756729,322.585968 193.766953,319.134491 
	C195.838486,315.577759 199.215546,315.063232 202.874863,316.034821 
	C203.931641,316.315399 204.822083,317.222504 206.013428,318.147247 
M204.458160,321.205872 
	C203.224030,318.239441 200.691559,316.637482 198.232071,318.592285 
	C196.591370,319.896362 195.646729,323.188599 195.914764,325.406891 
	C196.106766,326.995880 198.822968,328.279846 200.412979,329.699921 
	C201.908585,327.778046 203.466782,325.899445 204.849045,323.899231 
	C205.139511,323.478882 204.783234,322.611572 204.458160,321.205872 
z"/>
<path fill="#F1F1F1" opacity="1.000000" stroke="none" 
	d="
M202.079956,239.728577 
	C197.837921,237.761917 193.774460,235.428268 189.361694,233.057068 
	C189.006516,232.195816 188.980576,231.371704 188.998047,230.548508 
	C189.105377,225.494995 190.084671,224.719879 194.480743,227.315567 
	C203.729385,232.776489 203.899887,230.996048 202.079956,239.728577 
z"/>
<path fill="#9BD3E2" opacity="1.000000" stroke="none" 
	d="
M149.566284,129.968811 
	C150.067627,129.957932 150.239929,129.992752 150.753372,130.186722 
	C151.196625,130.385452 151.298737,130.425049 151.400848,130.464630 
	C151.294800,130.287766 151.188751,130.110901 151.082703,129.934036 
	C152.663528,126.254478 154.468369,126.453278 156.718323,129.805420 
	C156.991745,129.986526 157.000992,130.001266 156.998840,130.355164 
	C157.663147,131.804184 158.329620,132.899323 158.996094,133.994461 
	C158.996078,133.994461 159.000000,134.000000 158.995682,134.375702 
	C158.664047,136.171890 158.336731,137.592377 158.009415,139.012863 
	C158.009415,139.012863 158.000000,139.000000 157.664093,139.000305 
	C156.556946,139.337204 155.785690,139.673767 155.014420,140.010330 
	C155.014420,140.010330 155.001099,140.001831 154.702209,140.020523 
	C153.938568,140.363388 153.473831,140.687561 153.009109,141.011734 
	C153.009109,141.011734 153.000000,141.000000 152.671631,140.995911 
	C151.900421,140.996872 151.457581,141.001923 151.014755,141.006973 
	C145.468811,138.143799 149.627380,133.711395 149.566284,129.968811 
z"/>
<path fill="#7395B1" opacity="1.000000" stroke="none" 
	d="
M153.442749,153.837616 
	C154.891418,153.889069 156.014282,153.974350 157.557129,154.090668 
	C158.561569,154.900055 159.146027,155.678421 159.579849,156.858154 
	C158.926544,157.825882 158.423874,158.392242 157.690796,158.813507 
	C156.990173,158.602936 156.520004,158.537476 156.049820,158.472015 
	C156.713821,159.639526 157.377823,160.807037 158.020905,161.986664 
	C158.000000,161.998779 158.041351,161.977463 158.023102,162.319397 
	C158.351974,163.435791 158.699112,164.210236 159.034241,164.966644 
	C159.022232,164.948593 159.061920,164.923843 158.901672,165.234879 
	C156.542572,165.672729 154.343689,165.799545 152.144821,165.926361 
	C150.888672,164.754593 149.399353,163.736069 148.482681,162.341202 
	C148.073975,161.719299 148.817474,160.340179 149.598846,159.521667 
	C150.694824,159.776306 151.229965,159.814026 152.561035,159.907852 
	C151.414856,159.110764 150.948761,158.786636 150.482681,158.462509 
	C148.491348,155.285721 151.689331,155.086487 153.442749,153.837616 
z"/>
<path fill="#2F6A93" opacity="1.000000" stroke="none" 
	d="
M183.002686,170.997833 
	C184.244125,175.408035 185.485565,179.818222 186.475922,184.643402 
	C185.873428,185.059265 185.522003,185.060150 185.074158,184.842194 
	C184.649063,184.760193 184.320435,184.897034 183.992615,185.013138 
	C183.993423,184.992416 184.033493,185.003143 183.660309,184.985245 
	C181.854385,184.305191 180.421646,183.643036 178.988907,182.980881 
	C178.988907,182.980881 179.000000,183.000000 179.024872,182.666290 
	C178.696594,181.548615 178.343445,180.764648 177.990280,179.980682 
	C177.990280,179.980682 178.000122,179.999832 178.005432,179.697205 
	C177.670700,178.924728 177.330673,178.454895 176.990631,177.985062 
	C176.990631,177.985062 177.000000,177.999985 177.034195,177.677795 
	C176.790619,176.552261 176.512833,175.748932 176.276535,174.702271 
	C176.318024,174.458939 176.521698,174.009232 176.581909,174.042053 
	C176.642120,174.074860 176.779236,174.071808 177.061798,173.978027 
	C177.574539,173.584641 177.804733,173.285049 178.010376,172.984146 
	C177.985809,172.982834 177.980408,173.031723 178.300659,173.039612 
	C179.094482,172.695587 179.568039,172.343658 180.015076,171.985596 
	C179.988541,171.979492 179.973618,172.031845 180.316986,172.041412 
	C181.216583,171.693314 181.772827,171.335678 182.496719,171.008072 
	C182.664383,171.038116 183.002686,170.997833 183.002686,170.997833 
z"/>
<path fill="#1D1D1D" opacity="1.000000" stroke="none" 
	d="
M215.850311,323.337036 
	C215.602539,326.483124 215.358292,329.186157 215.114059,331.889221 
	C214.480652,331.806183 213.847260,331.723175 213.213867,331.640137 
	C213.213867,326.478821 213.213867,321.317505 213.213867,316.388000 
	C215.711304,316.388000 218.214722,316.388000 220.484589,316.388000 
	C218.807236,318.744629 217.330536,320.819305 215.850311,323.337036 
z"/>
<path fill="#80ABC3" opacity="1.000000" stroke="none" 
	d="
M171.153275,161.052948 
	C171.153275,161.052948 171.543289,161.049133 172.086411,161.041458 
	C173.421524,160.697449 174.213501,160.361099 175.005493,160.024750 
	C175.005493,160.024750 175.002640,160.002884 175.311249,159.996979 
	C176.082901,159.668106 176.545944,159.345169 177.008987,159.022217 
	C177.008987,159.022217 177.000610,159.001221 177.402222,159.001038 
	C178.314987,158.879105 178.826141,158.757324 179.337311,158.635559 
	C180.610458,162.139206 181.883606,165.642853 182.790848,169.409866 
	C179.562668,168.483810 176.700409,167.294388 173.514816,165.970612 
	C173.316116,167.175903 173.164719,168.094223 173.013321,169.012543 
	C172.375610,167.867523 171.737915,166.722488 171.254822,165.149826 
	C171.248566,164.485397 171.087692,164.248596 170.926819,164.011780 
	C170.926819,164.011780 170.993195,164.005402 171.005371,163.658752 
	C171.062790,162.559036 171.108032,161.806000 171.153275,161.052948 
z"/>
<path fill="#7395B1" opacity="1.000000" stroke="none" 
	d="
M220.453659,189.791290 
	C218.981293,188.753967 217.800644,187.443741 216.300323,186.075928 
	C215.401291,183.899170 214.821899,181.779968 214.387451,179.124863 
	C215.011810,176.415207 215.491257,174.241440 215.971161,172.055069 
	C215.971588,172.042450 215.995926,172.046204 216.366486,171.969131 
	C216.839630,171.262329 216.942215,170.632599 217.022919,170.002655 
	C217.001038,170.002426 217.024460,170.039276 217.024460,170.039276 
	C220.108353,170.018967 220.666458,171.780243 219.751419,174.229263 
	C218.637466,177.210693 216.526352,179.863754 220.561707,182.739059 
	C221.670273,183.528915 220.740051,187.180145 220.453659,189.791290 
z"/>
<path fill="#80ABC3" opacity="1.000000" stroke="none" 
	d="
M190.079346,154.022522 
	C190.079346,154.022522 190.493912,154.046188 190.866409,154.312653 
	C191.826859,155.387512 192.414810,156.195923 193.002762,157.004333 
	C193.002762,157.004333 193.000000,157.000000 193.015167,157.298828 
	C193.353897,158.065598 193.677460,158.533554 194.001022,159.001511 
	C194.001022,159.001511 194.009857,159.016953 194.000275,159.357849 
	C194.323318,160.459351 194.655914,161.219955 194.988525,161.980545 
	C194.988525,161.980545 195.000031,162.000000 194.997681,162.388977 
	C193.638748,164.204727 192.282150,165.631485 190.925568,167.058258 
	C189.027817,163.597916 187.130066,160.137589 185.492249,156.323364 
	C186.170700,155.654724 186.589188,155.339981 187.007675,155.025238 
	C187.007675,155.025238 187.000610,155.002838 187.349915,155.013519 
	C188.492599,154.690308 189.285965,154.356415 190.079346,154.022522 
z"/>
<path fill="#1D1D1D" opacity="1.000000" stroke="none" 
	d="
M163.454407,315.984436 
	C165.780075,316.049774 167.746323,316.049774 169.633682,316.049774 
	C168.053818,318.624847 166.047180,320.963043 165.124832,323.670593 
	C164.264328,326.196625 164.556122,329.115234 164.340683,331.861023 
	C163.423386,331.766510 162.506073,331.671967 161.588760,331.577454 
	C162.090836,326.358002 162.592911,321.138519 163.454407,315.984436 
z"/>
<path fill="#1D1D1D" opacity="1.000000" stroke="none" 
	d="
M226.109406,315.921478 
	C228.514938,319.930389 228.177124,329.273804 224.982513,332.697144 
	C224.874634,326.452576 223.442062,321.208221 226.109406,315.921478 
z"/>
<path fill="#21517F" opacity="1.000000" stroke="none" 
	d="
M185.170593,185.061035 
	C185.522003,185.060150 185.873428,185.059265 186.487946,185.042816 
	C187.416794,188.704102 188.082565,192.380966 188.355286,196.477142 
	C186.635361,196.258713 185.308487,195.620956 183.991455,194.993744 
	C184.001328,195.004303 184.017593,195.028076 184.021820,194.707336 
	C183.678024,193.915909 183.330002,193.445206 182.990524,192.987686 
	C182.999069,193.000885 183.013840,193.028641 183.049774,192.679962 
	C182.719009,191.545059 182.352325,190.758820 181.992920,189.986176 
	C182.000198,189.999786 182.015823,190.026382 182.038452,189.651337 
	C182.718536,187.851898 183.376007,186.427521 184.033478,185.003143 
	C184.033493,185.003143 183.993423,184.992416 184.286942,185.038300 
	C184.777161,185.076462 184.973877,185.068741 185.170593,185.061035 
z"/>
<path fill="#8FBCD0" opacity="1.000000" stroke="none" 
	d="
M190.965088,167.351639 
	C192.282150,165.631485 193.638748,164.204727 195.004211,162.398209 
	C198.953583,164.086853 202.324646,162.768616 205.653046,160.426941 
	C206.423187,159.885132 207.704956,160.070541 209.004379,159.925888 
	C209.257462,159.930450 209.678864,160.119888 209.760757,160.647491 
	C209.548340,162.793274 209.254028,164.411438 208.959717,166.029602 
	C208.188995,164.977997 207.418274,163.926392 206.397644,162.533798 
	C201.760101,164.518112 196.993362,166.557693 192.005432,168.883438 
	C191.524353,168.661392 191.264481,168.153214 190.965088,167.351639 
z"/>
<path fill="#797F8E" opacity="1.000000" stroke="none" 
	d="
M149.631927,264.274292 
	C146.955811,266.250458 143.854507,268.128296 140.367065,270.004395 
	C137.705566,267.478485 138.829254,265.755188 141.534683,265.064514 
	C144.006561,264.433472 146.642899,264.446686 149.631927,264.274292 
z"/>
<path fill="#80ABC3" opacity="1.000000" stroke="none" 
	d="
M212.924805,166.094604 
	C214.300735,164.813858 215.676682,163.533112 217.052612,162.252365 
	C217.395142,162.366699 217.737686,162.481049 218.080215,162.595383 
	C217.667984,164.812500 217.255753,167.029633 216.933990,169.643021 
	C217.024460,170.039276 217.001038,170.002426 216.697388,170.081116 
	C216.261139,170.788589 216.128540,171.417404 215.995926,172.046204 
	C215.995926,172.046204 215.971588,172.042450 215.607788,172.010056 
	C213.822861,171.327164 212.401718,170.676666 210.980591,170.026154 
	C210.980591,170.026154 210.990891,170.001328 211.035889,169.679291 
	C211.701492,168.262375 212.322113,167.167465 212.944794,166.070251 
	C212.946869,166.067947 212.924805,166.094604 212.924805,166.094604 
z"/>
<path fill="#417CA0" opacity="1.000000" stroke="none" 
	d="
M173.004791,169.003235 
	C173.164719,168.094223 173.316116,167.175903 173.514816,165.970612 
	C176.700409,167.294388 179.562668,168.483810 182.761078,169.813065 
	C183.120087,170.130554 183.142944,170.308197 183.084229,170.741852 
	C183.002686,170.997833 182.664383,171.038116 182.151443,171.041687 
	C181.083542,171.374115 180.528580,171.702972 179.973618,172.031845 
	C179.973618,172.031845 179.988541,171.979492 179.706177,172.011108 
	C178.942673,172.372375 178.461533,172.702057 177.980408,173.031723 
	C177.980408,173.031723 177.985809,172.982834 177.742035,173.087479 
	C177.258575,173.485352 177.018906,173.778580 176.779236,174.071808 
	C176.779236,174.071808 176.642120,174.074860 176.202393,173.889465 
	C175.498596,173.638168 175.234528,173.572281 174.970474,173.506393 
	C174.970474,173.506393 174.997040,173.495224 174.995117,173.138123 
	C174.656860,172.178177 174.320496,171.575302 173.984146,170.972443 
	C173.984146,170.972443 173.999908,170.999710 174.002777,170.697937 
	C173.664291,169.922012 173.322937,169.447845 172.981583,168.973679 
	C172.981583,168.973679 172.996246,168.993927 173.004791,169.003235 
z"/>
<path fill="#80ABC3" opacity="1.000000" stroke="none" 
	d="
M208.973083,166.019775 
	C209.254028,164.411438 209.548340,162.793274 209.866241,160.853027 
	C211.055115,159.740128 212.220428,158.949326 214.749252,157.233185 
	C213.947357,160.740402 213.422180,163.037308 212.910904,165.714401 
	C212.924805,166.094604 212.946869,166.067947 212.650818,166.152054 
	C211.228806,166.166199 210.102859,166.096237 208.976913,166.026291 
	C208.976913,166.026291 208.986450,166.009949 208.973083,166.019775 
z"/>
<path fill="#80ABC3" opacity="1.000000" stroke="none" 
	d="
M152.104660,166.284515 
	C154.343689,165.799545 156.542572,165.672729 159.288528,165.220215 
	C161.845337,164.540207 163.855072,164.185913 165.922333,163.899475 
	C165.979889,163.967346 166.098328,164.100189 166.098328,164.100189 
	C162.271805,167.211472 158.060440,169.049774 152.571152,168.070251 
	C152.119980,167.600113 152.092239,167.121384 152.104660,166.284515 
z"/>
<path fill="#7395B1" opacity="1.000000" stroke="none" 
	d="
M183.981598,194.983200 
	C185.308487,195.620956 186.635361,196.258713 188.311737,196.868835 
	C188.904999,198.112122 189.148788,199.383072 189.129990,200.830414 
	C187.913727,200.859909 186.960068,200.712982 186.235611,200.234100 
	C186.717026,199.622131 186.969223,199.342133 187.221420,199.062134 
	C186.951096,198.928162 186.680786,198.794189 186.410461,198.660202 
	C186.281433,199.115723 186.152405,199.571243 186.023376,200.026764 
	C185.527374,199.744843 185.031357,199.462921 184.257050,198.697189 
	C183.979706,197.136658 183.980652,196.059921 183.981598,194.983200 
z"/>
<path fill="#ACE2ED" opacity="1.000000" stroke="none" 
	d="
M193.374481,138.007202 
	C193.764465,137.669983 194.533997,137.331390 195.870529,136.887177 
	C196.631042,136.507721 196.824570,136.233887 197.018082,135.960037 
	C197.018082,135.960037 197.012024,136.003738 196.990128,136.002487 
	C197.988083,137.045792 199.007950,138.090347 200.028748,139.488403 
	C199.316315,139.808533 198.551010,139.929276 197.900223,139.710083 
	C196.487137,139.234070 195.132538,138.584442 193.374481,138.007202 
z"/>
<path fill="#ACE2ED" opacity="1.000000" stroke="none" 
	d="
M150.737457,142.105682 
	C151.053741,143.199768 151.022568,144.233612 150.965668,145.658066 
	C149.530838,144.936325 148.121735,143.823975 146.712631,142.711639 
	C146.892944,142.400406 147.073257,142.089157 147.253571,141.777924 
	C148.299042,141.867096 149.344513,141.956268 150.737457,142.105682 
z"/>
<path fill="#ACE2ED" opacity="1.000000" stroke="none" 
	d="
M177.954712,144.514954 
	C178.718658,143.836441 179.506546,143.425278 180.651077,143.006378 
	C180.372620,143.845001 179.737534,144.691391 178.948639,145.822906 
	C178.522766,145.666138 178.250702,145.224228 177.954712,144.514954 
z"/>
<path fill="#9BD3E2" opacity="1.000000" stroke="none" 
	d="
M186.649384,155.018768 
	C186.589188,155.339981 186.170700,155.654724 185.477417,155.976883 
	C184.914429,155.808807 184.626236,155.633316 184.243286,155.219696 
	C184.862717,154.991791 185.576889,155.002029 186.649384,155.018768 
z"/>
<path fill="#ACE2ED" opacity="1.000000" stroke="none" 
	d="
M151.048645,141.279404 
	C151.457581,141.001923 151.900421,140.996872 152.675476,141.002502 
	C152.584213,141.347153 152.160706,141.681152 151.461929,142.053040 
	C151.151932,141.911209 151.117218,141.731522 151.048645,141.279404 
z"/>
<path fill="#9BD3E2" opacity="1.000000" stroke="none" 
	d="
M179.307632,158.511658 
	C178.826141,158.757324 178.314987,158.879105 177.410309,159.008621 
	C177.536530,158.704865 178.056259,158.393372 178.903030,158.109650 
	C179.230087,158.137451 179.277954,158.387741 179.307632,158.511658 
z"/>
<path fill="#F1F1F1" opacity="1.000000" stroke="none" 
	d="
M270.550049,337.469360 
	C270.582886,337.524963 270.517181,337.413757 270.550049,337.469360 
z"/>
<path fill="#FFFFFF" opacity="1.000000" stroke="none" 
	d="
M265.244324,172.837891 
	C265.130829,173.451187 264.894806,173.801147 264.344513,174.104614 
	C264.118958,173.353592 264.207703,172.649048 264.296448,171.944519 
	C264.571564,172.154541 264.846649,172.364548 265.244324,172.837891 
z"/>
<path fill="#FFFFFF" opacity="1.000000" stroke="none" 
	d="
M228.318909,193.733276 
	C228.591003,194.231857 228.650421,194.901352 228.709839,195.570847 
	C228.424316,195.326172 228.138794,195.081512 227.774811,194.550644 
	C227.832993,194.144363 227.969620,194.024277 228.318909,193.733276 
z"/>
<path fill="#FFFFFF" opacity="1.000000" stroke="none" 
	d="
M198.999390,252.999084 
	C198.904816,253.034134 198.810883,253.070099 198.859161,253.053635 
	C199.001389,253.001221 199.000000,253.000000 198.999390,252.999084 
z"/>
<path fill="#FFFFFF" opacity="1.000000" stroke="none" 
	d="
M290.686646,169.433060 
	C290.782593,169.523911 290.459534,169.567795 290.459534,169.567795 
	C290.459534,169.567795 290.590729,169.342209 290.686646,169.433060 
z"/>
<path fill="#9BD3E2" opacity="1.000000" stroke="none" 
	d="
M170.866913,160.871475 
	C171.108032,161.806000 171.062790,162.559036 170.992950,163.689697 
	C170.178406,163.744736 169.388474,163.422165 168.412659,162.773315 
	C168.129028,160.987930 168.031265,159.528824 167.933502,158.069733 
	C167.944672,157.893127 167.955856,157.716522 167.984726,157.268845 
	C168.002396,156.997772 168.017899,156.982437 168.017899,156.982437 
	C168.872101,158.218292 169.726318,159.454147 170.866913,160.871475 
z"/>
<path fill="#80ABC3" opacity="1.000000" stroke="none" 
	d="
M167.659546,158.185333 
	C168.031265,159.528824 168.129028,160.987930 168.088806,162.753098 
	C167.950851,163.059174 167.568176,163.167267 167.305084,163.106903 
	C167.041977,163.046524 166.909241,162.926422 166.899460,162.622345 
	C166.244064,161.557281 165.598465,160.796265 164.952850,160.035263 
	C165.763763,159.457169 166.574677,158.879059 167.659546,158.185333 
z"/>
<path fill="#80ABC3" opacity="1.000000" stroke="none" 
	d="
M164.712463,178.931793 
	C164.151062,178.756805 163.876221,178.520721 163.601379,178.284637 
	C163.855865,178.139252 164.284698,177.824280 164.335770,177.876770 
	C164.608826,178.157486 164.787613,178.529922 164.712463,178.931793 
z"/>
<path fill="#80ABC3" opacity="1.000000" stroke="none" 
	d="
M163.050171,173.951889 
	C163.348114,174.652374 163.646072,175.352844 163.944016,176.053329 
	C163.725769,176.125580 163.507523,176.197845 163.289276,176.270111 
	C163.168259,175.731171 163.047256,175.192230 162.962036,174.326569 
	C162.997818,173.999847 163.050171,173.951889 163.050171,173.951889 
z"/>
<path fill="#80ABC3" opacity="1.000000" stroke="none" 
	d="
M161.908447,172.085983 
	C161.720963,171.611603 161.533493,171.137222 161.346008,170.662842 
	C161.587708,170.901886 161.829391,171.140930 162.035736,171.691422 
	C162.000412,172.002869 161.908447,172.085983 161.908447,172.085983 
z"/>
<path fill="#80ABC3" opacity="1.000000" stroke="none" 
	d="
M172.999237,169.282379 
	C173.322937,169.447845 173.664291,169.922012 174.011078,170.711334 
	C173.683289,170.548019 173.350082,170.069550 172.999237,169.282379 
z"/>
<path fill="#80ABC3" opacity="1.000000" stroke="none" 
	d="
M173.979431,171.313614 
	C174.320496,171.575302 174.656860,172.178177 174.988251,173.150070 
	C174.818512,173.436478 174.653748,173.353836 174.242828,173.145325 
	C173.989365,172.564560 173.982025,172.109665 173.979431,171.313614 
z"/>
<path fill="#FFFFFF" opacity="1.000000" stroke="none" 
	d="
M158.298569,185.696472 
	C159.084183,185.742722 159.601517,186.085953 160.829514,186.900665 
	C159.379440,186.900665 158.760620,186.900665 157.844666,186.766266 
	C157.708450,186.419067 157.869370,186.206238 158.298569,185.696472 
z"/>
<path fill="#80ABC3" opacity="1.000000" stroke="none" 
	d="
M172.745285,174.753693 
	C172.598190,175.088104 172.131149,175.588623 171.313095,176.209976 
	C171.449844,175.860474 171.937592,175.390137 172.745285,174.753693 
z"/>
<path fill="#80ABC3" opacity="1.000000" stroke="none" 
	d="
M162.970215,174.022186 
	C162.616257,173.588150 162.289902,173.131805 161.936005,172.380707 
	C161.908447,172.085983 162.000412,172.002869 162.049683,171.962158 
	C162.406265,172.399414 162.713608,172.877411 163.035553,173.653641 
	C163.050171,173.951889 162.997818,173.999847 162.970215,174.022186 
z"/>
<path fill="#9BD3E2" opacity="1.000000" stroke="none" 
	d="
M170.959320,164.236115 
	C171.087692,164.248596 171.248566,164.485397 171.256500,164.811005 
	C171.103561,164.899811 170.991806,164.460449 170.959320,164.236115 
z"/>
<path fill="#80ABC3" opacity="1.000000" stroke="none" 
	d="
M167.106262,163.108810 
	C167.062561,163.499908 166.855484,163.745056 166.323822,164.003357 
	C166.098328,164.100189 165.979889,163.967346 166.032822,163.687622 
	C166.313492,163.167511 166.587997,163.007019 166.909241,162.926422 
	C166.909241,162.926422 167.041977,163.046524 167.106262,163.108810 
z"/>
<path fill="#ACE2ED" opacity="1.000000" stroke="none" 
	d="
M171.752838,132.906586 
	C170.964920,137.295334 167.064774,134.706238 164.399353,136.018860 
	C165.900009,134.881287 167.791840,133.750351 169.842346,132.309204 
	C170.001022,131.999008 170.013077,131.986725 170.013077,131.986725 
	C170.507187,132.254868 171.001297,132.522995 171.752838,132.906586 
z"/>
<path fill="#ACE2ED" opacity="1.000000" stroke="none" 
	d="
M183.647461,128.012085 
	C183.676895,129.113068 183.348480,130.208359 183.011108,131.653503 
	C181.900757,131.345566 180.799347,130.687790 179.355316,130.020126 
	C180.438324,129.342270 181.863968,128.674332 183.647461,128.012085 
z"/>
<path fill="#ACE2ED" opacity="1.000000" stroke="none" 
	d="
M158.327728,139.037933 
	C158.336731,137.592377 158.664047,136.171890 158.997513,134.378647 
	C159.531525,134.900726 160.059402,135.795563 160.864868,136.864868 
	C161.104691,137.780365 161.066925,138.521408 161.016479,139.633881 
	C160.217865,139.691208 159.431946,139.377121 158.327728,139.037933 
z"/>
<path fill="#ACE2ED" opacity="1.000000" stroke="none" 
	d="
M158.997345,133.646606 
	C158.329620,132.899323 157.663147,131.804184 157.003098,130.361389 
	C157.672531,131.108749 158.335556,132.203751 158.997345,133.646606 
z"/>
<path fill="#ACE2ED" opacity="1.000000" stroke="none" 
	d="
M178.655594,130.011230 
	C177.904510,130.679688 176.803772,131.342926 175.355438,132.008621 
	C176.107208,131.342728 177.206589,130.674362 178.655594,130.011230 
z"/>
<path fill="#ACE2ED" opacity="1.000000" stroke="none" 
	d="
M174.667267,132.005539 
	C174.233826,132.346741 173.461014,132.683075 172.351120,133.014587 
	C172.785324,132.673386 173.556610,132.337036 174.667267,132.005539 
z"/>
<path fill="#ACE2ED" opacity="1.000000" stroke="none" 
	d="
M186.733826,127.006248 
	C186.286942,127.348114 185.491913,127.684151 184.355286,128.015167 
	C184.804352,127.673569 185.595001,127.336990 186.733826,127.006248 
z"/>
<path fill="#ACE2ED" opacity="1.000000" stroke="none" 
	d="
M169.994736,132.003510 
	C169.741547,131.650513 169.491943,131.294678 169.264145,130.925400 
	C169.258713,130.916611 169.497253,130.757355 169.622009,130.668274 
	C169.742798,130.946198 169.863571,131.224136 169.998718,131.744385 
	C170.013077,131.986725 170.001022,131.999008 169.994736,132.003510 
z"/>
<path fill="#ACE2ED" opacity="1.000000" stroke="none" 
	d="
M168.647095,127.728767 
	C168.632416,127.991028 168.493729,128.133987 168.355026,128.276947 
	C168.411041,128.054459 168.467056,127.831963 168.647095,127.728767 
z"/>
<path fill="#ACE2ED" opacity="1.000000" stroke="none" 
	d="
M180.234406,126.011215 
	C180.405487,125.896927 180.579025,125.953003 180.752563,126.009087 
	C180.580658,126.066582 180.408768,126.124077 180.234406,126.011215 
z"/>
<path fill="#ACE2ED" opacity="1.000000" stroke="none" 
	d="
M163.701965,136.028870 
	C163.521896,136.339188 163.035706,136.665863 162.236603,137.004028 
	C162.414398,136.692078 162.905121,136.368652 163.701965,136.028870 
z"/>
<path fill="#ACE2ED" opacity="1.000000" stroke="none" 
	d="
M188.731674,126.141899 
	C188.775635,126.328163 188.588089,126.599625 188.150543,126.935730 
	C188.022171,126.681908 188.222031,126.424149 188.731674,126.141899 
z"/>
<path fill="#ACE2ED" opacity="1.000000" stroke="none" 
	d="
M184.997208,137.366074 
	C186.422806,137.666855 187.847229,138.336273 189.641296,139.001755 
	C189.339798,140.740967 188.668655,142.484100 187.998886,144.613495 
	C188.000275,144.999725 188.008194,144.991425 188.008194,144.991425 
	C186.576141,143.999939 185.144089,143.008453 183.353317,142.011902 
	C183.661743,140.582809 184.328888,139.158768 184.997208,137.366074 
z"/>
<path fill="#9BD3E2" opacity="1.000000" stroke="none" 
	d="
M193.013306,156.637131 
	C192.414810,156.195923 191.826859,155.387512 191.073914,154.319214 
	C192.020844,153.375336 193.132767,152.691391 194.626373,152.013885 
	C194.346649,153.436874 193.685257,154.853409 193.013306,156.637131 
z"/>
<path fill="#9BD3E2" opacity="1.000000" stroke="none" 
	d="
M189.732422,154.016830 
	C189.285965,154.356415 188.492599,154.690308 187.359222,155.020172 
	C187.807983,154.681137 188.596725,154.346130 189.732422,154.016830 
z"/>
<path fill="#ACE2ED" opacity="1.000000" stroke="none" 
	d="
M190.333710,139.009872 
	C190.772385,138.672134 191.551620,138.335587 192.670425,137.999146 
	C192.231415,138.336517 191.452835,138.673782 190.333710,139.009872 
z"/>
<path fill="#ACE2ED" opacity="1.000000" stroke="none" 
	d="
M187.996033,145.002609 
	C188.312927,145.471695 188.634048,145.937881 188.977676,146.701965 
	C189.000168,146.999847 189.006012,146.993744 189.006012,146.993744 
	C188.689407,146.524460 188.372803,146.055176 188.032196,145.288666 
	C188.008194,144.991425 188.000275,144.999725 187.996033,145.002609 
z"/>
<path fill="#ACE2ED" opacity="1.000000" stroke="none" 
	d="
M181.297714,142.988586 
	C181.467300,142.686417 181.938751,142.366180 182.709351,142.021927 
	C182.538849,142.322113 182.069199,142.646332 181.297714,142.988586 
z"/>
<path fill="#9BD3E2" opacity="1.000000" stroke="none" 
	d="
M190.004074,148.992050 
	C190.252289,149.348404 190.503021,149.703186 190.732361,150.071289 
	C190.737396,150.079391 190.498566,150.239441 190.373505,150.328598 
	C190.255051,150.048462 190.136581,149.768311 190.008881,149.243744 
	C189.999649,148.999313 190.004074,148.992050 190.004074,148.992050 
z"/>
<path fill="#ACE2ED" opacity="1.000000" stroke="none" 
	d="
M189.996185,149.000397 
	C189.678589,148.530746 189.364441,148.059998 189.028168,147.291504 
	C189.006012,146.993744 189.000168,146.999847 188.997162,147.001862 
	C189.313492,147.468811 189.632828,147.933746 189.978119,148.695374 
	C190.004074,148.992050 189.999649,148.999313 189.996185,149.000397 
z"/>
<path fill="#9BD3E2" opacity="1.000000" stroke="none" 
	d="
M196.747314,151.026886 
	C196.575500,151.335220 196.097321,151.656326 195.317566,151.996826 
	C195.490967,151.690704 195.965942,151.365189 196.747314,151.026886 
z"/>
<path fill="#21517F" opacity="1.000000" stroke="none" 
	d="
M183.991455,194.993744 
	C183.980652,196.059921 183.979706,197.136658 183.981201,198.618988 
	C183.983643,199.024582 184.008316,198.999527 183.674500,198.971130 
	C182.550858,199.300278 181.761032,199.657852 180.971207,200.015411 
	C180.971207,200.015411 180.999374,199.999481 180.694397,199.988251 
	C179.917450,200.324051 179.445480,200.671097 178.973511,201.018158 
	C178.973511,201.018158 179.000748,201.000854 178.667725,200.961594 
	C177.547256,201.286240 176.759796,201.650162 175.972336,202.014069 
	C175.972336,202.014053 175.997375,201.999222 175.637299,201.988129 
	C173.852371,202.356247 172.427521,202.735474 171.002670,203.114685 
	C171.065369,202.469604 170.907242,201.413269 171.224777,201.242752 
	C174.571136,199.445847 173.878021,197.130661 172.400070,194.492264 
	C171.958878,193.704636 172.093430,192.594482 172.184479,191.012909 
	C173.613083,189.598007 174.821396,188.802322 176.029709,188.006622 
	C176.029709,188.006622 175.996292,187.991669 176.385193,188.053070 
	C178.521332,188.751755 180.268585,189.389069 182.015823,190.026382 
	C182.015823,190.026382 182.000198,189.999786 181.959930,190.331848 
	C182.284409,191.452148 182.649124,192.240402 183.013840,193.028641 
	C183.013840,193.028641 182.999069,193.000885 182.994720,193.301819 
	C183.332779,194.077850 183.675186,194.552963 184.017593,195.028076 
	C184.017593,195.028076 184.001328,195.004303 183.991455,194.993744 
z"/>
<path fill="#7395B1" opacity="1.000000" stroke="none" 
	d="
M182.038452,189.651337 
	C180.268585,189.389069 178.521332,188.751755 176.381439,188.070969 
	C176.980148,186.598267 177.971512,185.169052 178.975891,183.360352 
	C180.421646,183.643036 181.854385,184.305191 183.660309,184.985245 
	C183.376007,186.427521 182.718536,187.851898 182.038452,189.651337 
z"/>
<path fill="#7395B1" opacity="1.000000" stroke="none" 
	d="
M170.838043,203.347321 
	C172.427521,202.735474 173.852371,202.356247 175.648071,201.978333 
	C175.480515,202.724579 175.091599,203.853363 174.372208,204.133484 
	C172.933136,204.693878 171.313110,204.789566 169.387619,205.053162 
	C169.562744,204.546112 170.118073,204.063034 170.838043,203.347321 
z"/>
<path fill="#7395B1" opacity="1.000000" stroke="none" 
	d="
M175.674042,187.993500 
	C174.821396,188.802322 173.613083,189.598007 172.162598,190.602905 
	C173.053085,189.868210 174.185730,188.924301 175.674042,187.993500 
z"/>
<path fill="#7395B1" opacity="1.000000" stroke="none" 
	d="
M176.235046,174.945587 
	C176.512833,175.748932 176.790619,176.552261 177.038940,177.685150 
	C176.395508,177.220779 175.781540,176.426849 175.356506,175.330078 
	C175.775330,175.000015 176.005188,174.972794 176.235046,174.945587 
z"/>
<path fill="#7395B1" opacity="1.000000" stroke="none" 
	d="
M177.959305,180.327774 
	C178.343445,180.764648 178.696594,181.548615 179.030258,182.675919 
	C178.649963,182.237793 178.289139,181.456329 177.959305,180.327774 
z"/>
<path fill="#417CA0" opacity="1.000000" stroke="none" 
	d="
M169.359406,190.788361 
	C169.051910,191.143097 168.802292,191.281906 168.552673,191.420731 
	C168.478790,191.160751 168.404892,190.900772 168.331009,190.640778 
	C168.693100,190.617996 169.055206,190.595215 169.359406,190.788361 
z"/>
<path fill="#7395B1" opacity="1.000000" stroke="none" 
	d="
M176.975403,178.302582 
	C177.330673,178.454895 177.670700,178.924728 178.011475,179.706085 
	C177.661545,179.551758 177.310852,179.085922 176.975403,178.302582 
z"/>
<path fill="#80ABC3" opacity="1.000000" stroke="none" 
	d="
M176.276535,174.702271 
	C176.005188,174.972794 175.775330,175.000015 175.198730,175.059296 
	C174.811066,174.822693 174.770172,174.554016 174.849869,173.895859 
	C175.234528,173.572281 175.498596,173.638168 176.142181,173.856644 
	C176.521698,174.009232 176.318024,174.458939 176.276535,174.702271 
z"/>
<path fill="#ACE2ED" opacity="1.000000" stroke="none" 
	d="
M162.398804,150.965698 
	C162.683594,149.857849 163.339264,148.770630 163.996399,147.340118 
	C164.620361,147.816910 165.242844,148.637009 166.021423,149.736954 
	C165.041580,150.339981 163.905640,150.663147 162.398804,150.965698 
z"/>
<path fill="#ACE2ED" opacity="1.000000" stroke="none" 
	d="
M163.008392,144.634308 
	C162.334778,143.573410 161.666077,142.141113 160.996765,140.351685 
	C161.668533,141.417343 162.340912,142.840134 163.008392,144.634308 
z"/>
<path fill="#ACE2ED" opacity="1.000000" stroke="none" 
	d="
M183.992844,134.333511 
	C184.331726,134.770386 184.667450,135.547394 185.002380,136.663483 
	C184.664291,136.226257 184.326996,135.449966 183.992844,134.333511 
z"/>
<path fill="#ACE2ED" opacity="1.000000" stroke="none" 
	d="
M163.985657,146.701508 
	C163.680832,146.533157 163.359528,146.063126 163.017212,145.293777 
	C163.320526,145.462906 163.644867,145.931366 163.985657,146.701508 
z"/>
<path fill="#ACE2ED" opacity="1.000000" stroke="none" 
	d="
M169.699005,148.021851 
	C169.533051,148.324844 169.061844,148.647842 168.293579,149.015839 
	C168.462265,148.721161 168.928009,148.381500 169.699005,148.021851 
z"/>
<path fill="#ACE2ED" opacity="1.000000" stroke="none" 
	d="
M172.995132,139.006332 
	C172.744492,138.643982 172.491379,138.283157 172.259872,137.908981 
	C172.254944,137.901016 172.498917,137.739059 172.626770,137.648941 
	C172.749863,137.932465 172.872955,138.216003 172.998047,138.749756 
	C173.000046,139.000000 172.995132,139.006332 172.995132,139.006332 
z"/>
<path fill="#ACE2ED" opacity="1.000000" stroke="none" 
	d="
M183.010651,132.299271 
	C183.321136,132.465836 183.644501,132.934952 183.986115,133.705231 
	C183.677414,133.538193 183.350464,133.070007 183.010651,132.299271 
z"/>
<path fill="#ACE2ED" opacity="1.000000" stroke="none" 
	d="
M173.003479,138.997284 
	C173.131180,139.139206 173.255432,139.283859 173.379684,139.428528 
	C173.289642,139.381149 173.199585,139.333786 173.052338,139.146362 
	C172.995132,139.006332 173.000046,139.000000 173.003479,138.997284 
z"/>
<path fill="#7395B1" opacity="1.000000" stroke="none" 
	d="
M181.315155,200.032043 
	C181.761032,199.657852 182.550858,199.300278 183.689392,198.962006 
	C183.245117,199.337082 182.452118,199.692871 181.315155,200.032043 
z"/>
<path fill="#7395B1" opacity="1.000000" stroke="none" 
	d="
M176.318665,202.045105 
	C176.759796,201.650162 177.547256,201.286240 178.681915,200.953918 
	C178.241074,201.349045 177.453033,201.712585 176.318665,202.045105 
z"/>
<path fill="#7395B1" opacity="1.000000" stroke="none" 
	d="
M179.290237,201.014282 
	C179.445480,200.671097 179.917450,200.324051 180.708130,199.979691 
	C180.553543,200.325043 180.080261,200.667725 179.290237,201.014282 
z"/>
<path fill="#7395B1" opacity="1.000000" stroke="none" 
	d="
M176.680084,206.584198 
	C176.720428,207.022568 176.605057,207.283768 176.489685,207.544968 
	C176.385620,207.427704 176.176804,207.286743 176.196991,207.197617 
	C176.259064,206.923431 176.408737,206.669083 176.680084,206.584198 
z"/>
<path fill="#8FBCD0" opacity="1.000000" stroke="none" 
	d="
M210.960083,170.398346 
	C212.401718,170.676666 213.822861,171.327164 215.607361,172.022675 
	C215.491257,174.241440 215.011810,176.415207 214.286011,178.773682 
	C210.941727,178.328262 207.843826,177.698135 204.330475,177.079437 
	C205.215393,176.242615 206.644272,175.536316 207.780869,174.507202 
	C208.979172,173.422211 209.898422,172.029053 210.960083,170.398346 
z"/>
<path fill="#8FBCD0" opacity="1.000000" stroke="none" 
	d="
M208.970367,166.373047 
	C210.102859,166.096237 211.228806,166.166199 212.648743,166.154358 
	C212.322113,167.167465 211.701492,168.262375 211.022644,169.682678 
	C210.297531,168.911987 209.630676,167.815887 208.970367,166.373047 
z"/>
<path fill="#8FBCD0" opacity="1.000000" stroke="none" 
	d="
M199.392578,171.436371 
	C198.795425,171.041122 198.414490,170.461990 198.033569,169.882843 
	C198.287247,169.742752 198.540909,169.602646 198.794586,169.462540 
	C199.065994,170.059189 199.337387,170.655838 199.392578,171.436371 
z"/>
<path fill="#F1F1F1" opacity="1.000000" stroke="none" 
	d="
M259.041199,324.826172 
	C257.740601,326.194427 256.488434,327.146545 255.236282,328.098633 
	C254.455185,326.790710 252.995697,325.448669 253.059296,324.183197 
	C253.144852,322.480835 254.144379,319.614685 255.208176,319.387695 
	C259.101013,318.557007 258.962494,321.776886 259.041199,324.826172 
z"/>
<path fill="#F1F1F1" opacity="1.000000" stroke="none" 
	d="
M177.679291,327.812500 
	C177.223053,326.558594 176.639893,325.459106 176.923935,324.672974 
	C177.740082,322.414124 178.650864,320.072296 180.133347,318.261627 
	C180.464523,317.857117 184.489532,319.218628 184.721451,320.241486 
	C185.280762,322.708282 185.352051,325.849884 184.227966,327.987122 
	C182.911362,330.490417 180.113144,330.162354 177.679291,327.812500 
z"/>
<path fill="#8FBCD0" opacity="1.000000" stroke="none" 
	d="
M195.001480,161.645569 
	C194.655914,161.219955 194.323318,160.459351 194.004852,159.365570 
	C194.350815,159.791794 194.682617,160.551178 195.001480,161.645569 
z"/>
<path fill="#9BD3E2" opacity="1.000000" stroke="none" 
	d="
M193.989136,158.698288 
	C193.677460,158.533554 193.353897,158.065598 193.013672,157.296661 
	C193.323761,157.462158 193.650513,157.928604 193.989136,158.698288 
z"/>
<path fill="#6381A1" opacity="1.000000" stroke="none" 
	d="
M207.652771,188.963287 
	C208.021912,190.065369 208.029739,191.144135 208.012390,192.627289 
	C206.568069,192.404846 205.148926,191.778015 203.363251,191.092743 
	C204.428284,190.336197 205.859879,189.638077 207.652771,188.963287 
z"/>
<path fill="#6381A1" opacity="1.000000" stroke="none" 
	d="
M210.671722,187.950562 
	C210.235291,188.346146 209.451736,188.701645 208.324692,189.033844 
	C208.762329,188.643845 209.543457,188.277145 210.671722,187.950562 
z"/>
<path fill="#7395B1" opacity="1.000000" stroke="none" 
	d="
M215.680878,185.948608 
	C215.238800,186.337341 214.446869,186.688019 213.312622,187.027802 
	C213.757217,186.648132 214.544144,186.279343 215.680878,185.948608 
z"/>
<path fill="#6381A1" opacity="1.000000" stroke="none" 
	d="
M212.695419,186.969391 
	C212.546463,187.332458 212.077820,187.674469 211.296051,188.014282 
	C211.447189,187.657516 211.911453,187.302917 212.695419,186.969391 
z"/>
<path fill="#7395B1" opacity="1.000000" stroke="none" 
	d="
M203.029739,180.977097 
	C203.380554,181.426987 203.706375,181.897202 204.013977,182.685730 
	C203.995758,183.004044 203.972504,183.026184 203.972504,183.026184 
	C203.638443,182.568176 203.304398,182.110168 202.963745,181.346497 
	C202.957138,181.040848 203.004745,180.997421 203.029739,180.977097 
z"/>
<path fill="#7395B1" opacity="1.000000" stroke="none" 
	d="
M204.008102,182.994553 
	C204.276093,183.326080 204.543365,183.660049 204.762848,184.022934 
	C204.778549,184.048904 204.444336,184.286484 204.272827,184.425674 
	C204.167450,184.142700 204.062057,183.859726 203.964584,183.301468 
	C203.972504,183.026184 203.995758,183.004044 204.008102,182.994553 
z"/>
<path fill="#7395B1" opacity="1.000000" stroke="none" 
	d="
M205.818909,186.946808 
	C205.624786,187.169800 205.414719,187.192307 205.218918,187.149521 
	C205.182037,187.141464 205.202011,186.873184 205.195770,186.724960 
	C205.399811,186.724564 205.603867,186.724167 205.818909,186.946808 
z"/>
<path fill="#6381A1" opacity="1.000000" stroke="none" 
	d="
M202.682190,191.010605 
	C202.467117,191.382950 201.902725,191.752274 200.956924,192.096527 
	C201.161301,191.716843 201.747101,191.362213 202.682190,191.010605 
z"/>
<path fill="#6381A1" opacity="1.000000" stroke="none" 
	d="
M207.920868,193.337250 
	C208.327484,193.775620 208.688675,194.556717 209.021515,195.687592 
	C208.620605,195.251572 208.248032,194.465759 207.920868,193.337250 
z"/>
<path fill="#6381A1" opacity="1.000000" stroke="none" 
	d="
M208.969604,196.341827 
	C209.315948,196.582352 209.669067,197.179031 210.008316,198.153946 
	C209.655090,197.920776 209.315750,197.309387 208.969604,196.341827 
z"/>
<path fill="#417CA0" opacity="1.000000" stroke="none" 
	d="
M166.899460,162.622345 
	C166.587997,163.007019 166.313492,163.167511 165.975281,163.619751 
	C163.855072,164.185913 161.845337,164.540207 159.448761,164.909180 
	C159.061920,164.923843 159.022232,164.948593 159.068848,164.622299 
	C158.757431,163.523163 158.399399,162.750305 158.041351,161.977463 
	C158.041351,161.977463 158.000000,161.998779 158.054596,161.610062 
	C158.046539,160.467087 157.983871,159.712845 157.921204,158.958588 
	C158.423874,158.392242 158.926544,157.825882 159.686218,157.133301 
	C161.415237,157.930481 162.887253,158.853897 164.656052,159.906281 
	C165.598465,160.796265 166.244064,161.557281 166.899460,162.622345 
z"/>
<path fill="#9BD3E2" opacity="1.000000" stroke="none" 
	d="
M166.977081,152.994736 
	C167.322144,154.080597 167.667206,155.166443 168.015076,156.617371 
	C168.017899,156.982437 168.002396,156.997772 167.994171,157.003571 
	C167.348434,155.891998 166.710922,154.774628 166.289948,153.329926 
	C166.506485,153.002579 166.977081,152.994736 166.977081,152.994736 
z"/>
<path fill="#9BD3E2" opacity="1.000000" stroke="none" 
	d="
M174.662964,160.020050 
	C174.213501,160.361099 173.421524,160.697449 172.281006,161.028671 
	C172.728470,160.687500 173.524460,160.351440 174.662964,160.020050 
z"/>
<path fill="#9BD3E2" opacity="1.000000" stroke="none" 
	d="
M176.710388,159.037643 
	C176.545944,159.345169 176.082901,159.668106 175.320297,160.003540 
	C175.484421,159.695038 175.948105,159.374054 176.710388,159.037643 
z"/>
<path fill="#ACE2ED" opacity="1.000000" stroke="none" 
	d="
M166.896393,152.822784 
	C166.977081,152.994736 166.506485,153.002579 166.271637,152.997894 
	C166.296417,152.879074 166.556061,152.764938 166.896393,152.822784 
z"/>
<path fill="#F1F1F1" opacity="1.000000" stroke="none" 
	d="
M149.697754,322.370056 
	C148.124100,322.333466 147.001480,322.266785 145.329254,322.167511 
	C146.299362,319.124329 147.166031,316.405609 148.032700,313.686920 
	C148.402451,313.679413 148.772217,313.671875 149.141983,313.664368 
	C149.477585,316.556244 149.813187,319.448120 149.697754,322.370056 
z"/>
<path fill="#ACE2ED" opacity="1.000000" stroke="none" 
	d="
M155.352036,140.016357 
	C155.785690,139.673767 156.556946,139.337204 157.667633,139.006348 
	C157.234589,139.348846 156.462128,139.685608 155.352036,140.016357 
z"/>
<path fill="#ACE2ED" opacity="1.000000" stroke="none" 
	d="
M153.308167,140.994736 
	C153.473831,140.687561 153.938568,140.363388 154.703491,140.028381 
	C154.538193,140.337601 154.072708,140.657669 153.308167,140.994736 
z"/>
<path fill="#FFFFFF" opacity="1.000000" stroke="none" 
	d="
M196.763428,136.035095 
	C196.824570,136.233887 196.631042,136.507721 196.208191,136.894485 
	C196.155502,136.708313 196.332138,136.409225 196.763428,136.035095 
z"/>
<path fill="#F1F1F1" opacity="1.000000" stroke="none" 
	d="
M204.591553,321.578064 
	C204.783234,322.611572 205.139511,323.478882 204.849045,323.899231 
	C203.466782,325.899445 201.908585,327.778046 200.412994,329.699921 
	C198.822968,328.279846 196.106766,326.995880 195.914764,325.406891 
	C195.646729,323.188599 196.591370,319.896362 198.232071,318.592285 
	C200.691559,316.637482 203.224030,318.239441 204.591553,321.578064 
z"/>
<path fill="#ACE2ED" opacity="1.000000" stroke="none" 
	d="
M151.044113,129.968292 
	C151.188751,130.110901 151.294800,130.287766 151.400848,130.464630 
	C151.298737,130.425049 151.196625,130.385452 151.015778,130.212814 
	C150.937027,130.079758 151.005524,130.002563 151.044113,129.968292 
z"/>
<path fill="#80ABC3" opacity="1.000000" stroke="none" 
	d="
M157.690781,158.813492 
	C157.983871,159.712845 158.046539,160.467087 158.075500,161.597946 
	C157.377823,160.807037 156.713821,159.639526 156.049820,158.472015 
	C156.520004,158.537476 156.990173,158.602936 157.690781,158.813492 
z"/>
<path fill="#80ABC3" opacity="1.000000" stroke="none" 
	d="
M158.023102,162.319397 
	C158.399399,162.750305 158.757431,163.523163 159.080872,164.640350 
	C158.699112,164.210236 158.351974,163.435791 158.023102,162.319397 
z"/>
<path fill="#FFFFFF" opacity="1.000000" stroke="none" 
	d="
M150.281128,158.683472 
	C150.948761,158.786636 151.414856,159.110764 152.561035,159.907852 
	C151.229965,159.814026 150.694824,159.776306 149.923462,159.547272 
	C149.818008,159.205429 149.948776,159.054916 150.281128,158.683472 
z"/>
<path fill="#80ABC3" opacity="1.000000" stroke="none" 
	d="
M178.300659,173.039612 
	C178.461533,172.702057 178.942673,172.372375 179.732697,172.017212 
	C179.568039,172.343658 179.094482,172.695587 178.300659,173.039612 
z"/>
<path fill="#80ABC3" opacity="1.000000" stroke="none" 
	d="
M180.316986,172.041412 
	C180.528580,171.702972 181.083542,171.374115 181.983780,171.011627 
	C181.772827,171.335678 181.216583,171.693314 180.316986,172.041412 
z"/>
<path fill="#7395B1" opacity="1.000000" stroke="none" 
	d="
M185.074158,184.842194 
	C184.973877,185.068741 184.777161,185.076462 184.286133,185.059021 
	C184.320435,184.897034 184.649063,184.760193 185.074158,184.842194 
z"/>
<path fill="#80ABC3" opacity="1.000000" stroke="none" 
	d="
M177.061798,173.978027 
	C177.018906,173.778580 177.258575,173.485352 177.766602,173.088791 
	C177.804733,173.285049 177.574539,173.584641 177.061798,173.978027 
z"/>
<path fill="#FFFFFF" opacity="1.000000" stroke="none" 
	d="
M216.366486,171.969131 
	C216.128540,171.417404 216.261139,170.788589 216.719284,170.081329 
	C216.942215,170.632599 216.839630,171.262329 216.366486,171.969131 
z"/>
<path fill="#7395B1" opacity="1.000000" stroke="none" 
	d="
M183.049774,192.679962 
	C182.649124,192.240402 182.284409,191.452148 181.952667,190.318237 
	C182.352325,190.758820 182.719009,191.545059 183.049774,192.679962 
z"/>
<path fill="#7395B1" opacity="1.000000" stroke="none" 
	d="
M184.021820,194.707336 
	C183.675186,194.552963 183.332779,194.077850 182.986176,193.288620 
	C183.330002,193.445206 183.678024,193.915909 184.021820,194.707336 
z"/>
<path fill="#21517F" opacity="1.000000" stroke="none" 
	d="
M186.011337,200.013580 
	C186.152405,199.571243 186.281433,199.115723 186.410461,198.660202 
	C186.680786,198.794189 186.951096,198.928162 187.221420,199.062134 
	C186.969223,199.342133 186.717026,199.622131 186.218567,199.939575 
	C185.972305,199.977036 185.999298,200.000397 186.011337,200.013580 
z"/>
</svg>